<?xml version="1.0" encoding="UTF-8"?><svg id="_レイヤー_2" xmlns="http://www.w3.org/2000/svg" xmlns:xlink="http://www.w3.org/1999/xlink" viewBox="0 0 323.15 323.15"><defs><style>.cls-1{fill:none;}.cls-2{clip-path:url(#clippath);}.cls-3{fill:#036eb8;}.cls-4{fill:#f1cd45;}.cls-5{fill:#f6ab3e;}.cls-6,.cls-7{fill:#ffe200;}.cls-8,.cls-9{fill:#c18243;}.cls-10{clip-path:url(#clippath-1);}.cls-11{clip-path:url(#clippath-2);}.cls-12{filter:url(#drop-shadow-1);}.cls-9{filter:url(#drop-shadow-2);}.cls-13{filter:url(#drop-shadow-9);}.cls-13,.cls-14,.cls-15,.cls-16,.cls-17{fill:#9ebd2b;}.cls-14{filter:url(#drop-shadow-8);}.cls-15{filter:url(#drop-shadow-7);}.cls-18{fill:#e83828;filter:url(#drop-shadow-6);}.cls-19{filter:url(#drop-shadow-5);}.cls-19,.cls-20{fill:#fff;}.cls-20{filter:url(#drop-shadow-4);}.cls-7{filter:url(#drop-shadow-3);}.cls-16{filter:url(#drop-shadow-10);}.cls-17{filter:url(#drop-shadow-11);}</style><filter id="drop-shadow-1" filterUnits="userSpaceOnUse"><feOffset dx=".85" dy=".85"/><feGaussianBlur result="blur" stdDeviation="0"/><feFlood flood-color="#231815" flood-opacity=".3"/><feComposite in2="blur" operator="in"/><feComposite in="SourceGraphic"/></filter><filter id="drop-shadow-2" filterUnits="userSpaceOnUse"><feOffset dx=".85" dy=".85"/><feGaussianBlur result="blur-2" stdDeviation="0"/><feFlood flood-color="#231815" flood-opacity=".3"/><feComposite in2="blur-2" operator="in"/><feComposite in="SourceGraphic"/></filter><filter id="drop-shadow-3" filterUnits="userSpaceOnUse"><feOffset dx=".85" dy=".85"/><feGaussianBlur result="blur-3" stdDeviation="0"/><feFlood flood-color="#231815" flood-opacity=".3"/><feComposite in2="blur-3" operator="in"/><feComposite in="SourceGraphic"/></filter><filter id="drop-shadow-4" filterUnits="userSpaceOnUse"><feOffset dx=".85" dy=".85"/><feGaussianBlur result="blur-4" stdDeviation="0"/><feFlood flood-color="#231815" flood-opacity=".3"/><feComposite in2="blur-4" operator="in"/><feComposite in="SourceGraphic"/></filter><filter id="drop-shadow-5" filterUnits="userSpaceOnUse"><feOffset dx=".85" dy=".85"/><feGaussianBlur result="blur-5" stdDeviation="0"/><feFlood flood-color="#231815" flood-opacity=".3"/><feComposite in2="blur-5" operator="in"/><feComposite in="SourceGraphic"/></filter><filter id="drop-shadow-6" filterUnits="userSpaceOnUse"><feOffset dx=".85" dy=".85"/><feGaussianBlur result="blur-6" stdDeviation="0"/><feFlood flood-color="#231815" flood-opacity=".3"/><feComposite in2="blur-6" operator="in"/><feComposite in="SourceGraphic"/></filter><clipPath id="clippath"><path class="cls-1" d="m226.92,85.43s1.58-10.55,19.52-11.08c0,0,23.21-8.44,47.47-.53,0,0,22.15,1.58,18.46,17.41l-3.69,12.13-6.86,17.93-10.55,26.37-16.35,4.75-26.37-6.33-16.88-33.23s-9.49-11.08-4.75-27.43Z"/></clipPath><clipPath id="clippath-1"><polygon class="cls-1" points="228.08 80.34 231.67 102.92 240.87 109.12 256.65 132.3 265.45 145.49 277.64 153.28 252.66 151.88 242.87 145.29 224.88 109.12 221.48 93.73 228.08 80.34"/></clipPath><filter id="drop-shadow-7" filterUnits="userSpaceOnUse"><feOffset dx=".85" dy=".85"/><feGaussianBlur result="blur-7" stdDeviation="0"/><feFlood flood-color="#231815" flood-opacity=".3"/><feComposite in2="blur-7" operator="in"/><feComposite in="SourceGraphic"/></filter><filter id="drop-shadow-8" filterUnits="userSpaceOnUse"><feOffset dx=".85" dy=".85"/><feGaussianBlur result="blur-8" stdDeviation="0"/><feFlood flood-color="#231815" flood-opacity=".3"/><feComposite in2="blur-8" operator="in"/><feComposite in="SourceGraphic"/></filter><filter id="drop-shadow-9" filterUnits="userSpaceOnUse"><feOffset dx=".85" dy=".85"/><feGaussianBlur result="blur-9" stdDeviation="0"/><feFlood flood-color="#231815" flood-opacity=".3"/><feComposite in2="blur-9" operator="in"/><feComposite in="SourceGraphic"/></filter><filter id="drop-shadow-10" filterUnits="userSpaceOnUse"><feOffset dx=".85" dy=".85"/><feGaussianBlur result="blur-10" stdDeviation="0"/><feFlood flood-color="#231815" flood-opacity=".3"/><feComposite in2="blur-10" operator="in"/><feComposite in="SourceGraphic"/></filter><clipPath id="clippath-2"><path class="cls-1" d="m87.86,62.99l-24.18,21.68,3.1,28.74c7.39.76,14.78,1.88,22.1,3.32,13.78,2.71,22.54,5.42,32.27,16.97,8.57,10.17,21.77,13.2,33.04,17.57,19.43,7.53,40.57,9.6,60.9,10.76l43.3-60.62-1.57-5.13c-1.27-.84-2.12-1.21-2.12-1.21,0,0-97.48-38.73-166.82-32.07Z"/></clipPath><filter id="drop-shadow-11" filterUnits="userSpaceOnUse"><feOffset dx=".85" dy=".85"/><feGaussianBlur result="blur-11" stdDeviation="0"/><feFlood flood-color="#231815" flood-opacity=".3"/><feComposite in2="blur-11" operator="in"/><feComposite in="SourceGraphic"/></filter></defs><g id="_レイヤー_1-2"><g class="cls-12"><path class="cls-5" d="m87.29,91.01l-17.72,97.55s26.19,21.58,38.4,16.29c12.21-5.29,18.93-10.83,18.93-10.83l-9.72-47.9,2.19-45.13-20.14-16.39-11.94,6.41Z"/><polygon class="cls-8" points="96.12 101.41 84.88 104.27 78.67 138.42 117.3 143.67 118.73 114.26 96.12 101.41"/><path class="cls-5" d="m220.48,118.52l-17.72,97.55s26.19,21.58,38.4,16.29c12.21-5.29,18.93-10.83,18.93-10.83l-9.72-47.9,2.19-45.13-20.14-16.39-11.94,6.41Z"/><polygon class="cls-8" points="209.21 180.57 250.66 167.75 252.56 128.5 252.23 128.23 218.01 132.09 209.21 180.57"/><path class="cls-6" d="m254.68,95.06s-125.39-49.83-192.9-26.75c0,0-49.12,24.88-46.63,59.19,2.48,34.23-13.35,66.67-13.42,66.81-3.06,6.26-1.88,18.31,2.09,23.7,12.71,17.24,48.02-2.33,61.16-8.41-7.52-12.89-7.92-35.27-7.66-50.05.44-24.48,7.71-46.33,7.71-46.33,7.97.76,15.95,1.95,23.84,3.51,13.78,2.71,22.54,5.42,32.27,16.97,8.57,10.17,21.77,13.2,33.04,17.57,19.78,7.66,41.33,9.68,61.99,10.83,16.87.94,34.08-4.23,43.52-21,19.79-35.18-5-46.03-5-46.03Z"/><path class="cls-6" d="m157.9,133.86l2.09,119.39s38.01,19.12,51.93,9.92c13.91-9.2,20.93-17.36,20.93-17.36l-23.99-54.17-8.46-53.78-29.19-14.46-13.3,10.46Z"/><path class="cls-5" d="m257.69,95.06s-11.64-4.62-29.73-10.4c-2.84,12.68-10.36,52.09-.69,77.39,14.09-.97,27.5-6.87,35.42-20.96,19.79-35.18-5-46.03-5-46.03Z"/><path class="cls-4" d="m267.24,104.2c-3.75-6.59-9.54-9.13-9.54-9.13,0,0-11.64-4.62-29.73-10.4-2.04,9.1-6.48,31.97-5.26,53.51l38.92-11.26,5.61-22.71Z"/><path class="cls-9" d="m251.67,95.06s-7.95-3.16-20.91-7.51c-7.22,14.64-.48,26.91-.48,26.91l9.76,35.97,6.1,2.88c4.07-3.11,7.66-7.12,10.53-12.21,19.79-35.18-5-46.03-5-46.03Z"/></g><path class="cls-7" d="m226.92,85.43s1.58-10.55,19.52-11.08c0,0,23.21-8.44,47.47-.53,0,0,22.15,1.58,18.46,17.41l-3.69,12.13-6.86,17.93-10.55,26.37-16.35,4.75-26.37-6.33-16.88-33.23s-9.49-11.08-4.75-27.43Z"/><path class="cls-20" d="m262.85,97.72s-8.79,3.6-7.79,10.59c0,0,1.4,7.99,7.99,7.79,0,0,8.99,2,10.59-6.4,0,0,1.4-8.59-3.8-10.79,0,0-4-3-6.99-1.2Z"/><path class="cls-19" d="m299.62,98.72s-6,1.6-5.8,6.4c0,0,.2,9.39,5.6,11.19,0,0,4,.4,6.59-7.79,0,0,1.2-6.4-1.6-9.39,0,0-2.8-1.8-4.8-.4Z"/><path class="cls-3" d="m259.25,105.32s.8-1,3,2.2c0,0,2.6,2,4.2-.4,0,0,1.8-1.8,3.2-1.6,0,0-1.8,2-2.6,4.2,0,0-6.4,4.32-6.4-.2,0-1-1.4-4.2-1.4-4.2Z"/><path class="cls-3" d="m296.82,103.92s3.4-.4,4,3.4c0,0,3,2.2,3.6-2,0,0,.8,7.59-3,5.6,0,0-1.8.2-3-3.6,0,0,.6-2.6-1.6-3.4Z"/><path class="cls-18" d="m272.44,134.1s8.19,1.6,12.99-.2c0,0,4.8-1,7.39-4.4l-2.4,7.19s-1.4,8.19-6.4,7.59c0,0-4,2-8.19-5l-3.4-5.2Z"/><g class="cls-2"><polygon class="cls-5" points="228.08 80.34 231.67 102.92 240.87 109.12 256.65 132.3 265.45 145.49 277.64 153.28 252.66 151.88 242.87 145.29 224.88 109.12 221.48 93.73 228.08 80.34"/><path class="cls-5" d="m293.91,73.82c.51-.28,10.1,16.91,10.1,16.91l4.8-2.2-4.4-14.19-10.5-.52Z"/><g class="cls-10"><polygon class="cls-8" points="219.28 107.52 234.07 103.52 242.87 107.52 227.28 119.51 219.28 107.52"/><polygon class="cls-8" points="239.87 145.09 267.25 145.49 278.24 151.68 273.84 156.88 253.66 157.08 239.87 145.09"/></g></g><polygon class="cls-15" points="270.44 76.94 274.44 76.94 290.43 81.94 293.23 79.54 291.63 77.54 273.84 74.94 270.44 76.94"/><polygon class="cls-14" points="264.05 72.34 272.84 71.74 290.83 75.34 293.91 73.82 274.64 70.95 269.84 71.15 264.05 72.34"/><polygon class="cls-13" points="162.3 120 168.63 111.98 209.09 91.87 206.24 80.51 197.64 78.93 161.61 108.4 162.3 120"/><polygon class="cls-16" points="121.49 108.9 127.82 100.88 168.29 80.77 165.43 69.41 156.83 67.83 120.8 97.29 121.49 108.9"/><g class="cls-11"><polygon class="cls-17" points="93.29 93.59 99.61 85.57 140.08 65.46 137.23 54.11 128.63 52.53 92.6 81.99 93.29 93.59"/></g><rect class="cls-1" x="0" width="323.15" height="323.15"/></g></svg>