<?xml version="1.0" encoding="UTF-8"?><svg xmlns="http://www.w3.org/2000/svg" xmlns:xlink="http://www.w3.org/1999/xlink" viewBox="0 0 67 45"><defs><style>.cls-1,.cls-2{fill:none;}.cls-3{clip-path:url(#clippath);}.cls-4{fill:#036eb7;}.cls-5{fill:#f5aa3e;}.cls-6,.cls-7,.cls-8,.cls-9,.cls-10{fill:#fff;}.cls-11,.cls-12,.cls-13{fill:#ffe100;}.cls-14{fill:#f0cc44;}.cls-15,.cls-16,.cls-17{fill:#c08242;}.cls-18{mix-blend-mode:multiply;}.cls-19{clip-path:url(#clippath-1);}.cls-20{clip-path:url(#clippath-4);}.cls-21{clip-path:url(#clippath-3);}.cls-22{clip-path:url(#clippath-2);}.cls-23{filter:url(#drop-shadow-2);}.cls-24{fill:#534741;filter:url(#drop-shadow-1);stroke:#534741;stroke-miterlimit:10;stroke-width:1.97px;}.cls-16{filter:url(#drop-shadow-3);}.cls-25{filter:url(#drop-shadow-8);}.cls-25,.cls-26,.cls-27,.cls-28,.cls-29,.cls-30,.cls-31{fill:#9dbc2a;}.cls-26{filter:url(#drop-shadow-9);}.cls-32{filter:url(#drop-shadow-7);}.cls-32,.cls-33{fill:#e73828;}.cls-12{filter:url(#drop-shadow-4);}.cls-7{filter:url(#drop-shadow-5);}.cls-8{filter:url(#drop-shadow-6);}.cls-17{filter:url(#drop-shadow-11);}.cls-27{filter:url(#drop-shadow-16);}.cls-28{filter:url(#drop-shadow-20);}.cls-29{filter:url(#drop-shadow-19);}.cls-30{filter:url(#drop-shadow-18);}.cls-31{filter:url(#drop-shadow-17);}.cls-13{filter:url(#drop-shadow-12);}.cls-9{filter:url(#drop-shadow-13);}.cls-10{filter:url(#drop-shadow-14);}.cls-33{filter:url(#drop-shadow-15);}.cls-34{isolation:isolate;}.cls-2{filter:url(#drop-shadow-21);opacity:.5;}.cls-35{filter:url(#drop-shadow-10);}</style><filter id="drop-shadow-1" filterUnits="userSpaceOnUse"><feOffset dx=".17" dy=".17"/><feGaussianBlur result="blur" stdDeviation="0"/><feFlood flood-color="#231815" flood-opacity=".3"/><feComposite in2="blur" operator="in"/><feComposite in="SourceGraphic"/></filter><filter id="drop-shadow-2" filterUnits="userSpaceOnUse"><feOffset dx=".17" dy=".17"/><feGaussianBlur result="blur-2" stdDeviation="0"/><feFlood flood-color="#231815" flood-opacity=".3"/><feComposite in2="blur-2" operator="in"/><feComposite in="SourceGraphic"/></filter><filter id="drop-shadow-3" filterUnits="userSpaceOnUse"><feOffset dx=".17" dy=".17"/><feGaussianBlur result="blur-3" stdDeviation="0"/><feFlood flood-color="#231815" flood-opacity=".3"/><feComposite in2="blur-3" operator="in"/><feComposite in="SourceGraphic"/></filter><filter id="drop-shadow-4" filterUnits="userSpaceOnUse"><feOffset dx=".17" dy=".17"/><feGaussianBlur result="blur-4" stdDeviation="0"/><feFlood flood-color="#231815" flood-opacity=".3"/><feComposite in2="blur-4" operator="in"/><feComposite in="SourceGraphic"/></filter><filter id="drop-shadow-5" filterUnits="userSpaceOnUse"><feOffset dx=".17" dy=".17"/><feGaussianBlur result="blur-5" stdDeviation="0"/><feFlood flood-color="#231815" flood-opacity=".3"/><feComposite in2="blur-5" operator="in"/><feComposite in="SourceGraphic"/></filter><filter id="drop-shadow-6" filterUnits="userSpaceOnUse"><feOffset dx=".17" dy=".17"/><feGaussianBlur result="blur-6" stdDeviation="0"/><feFlood flood-color="#231815" flood-opacity=".3"/><feComposite in2="blur-6" operator="in"/><feComposite in="SourceGraphic"/></filter><filter id="drop-shadow-7" filterUnits="userSpaceOnUse"><feOffset dx=".17" dy=".17"/><feGaussianBlur result="blur-7" stdDeviation="0"/><feFlood flood-color="#231815" flood-opacity=".3"/><feComposite in2="blur-7" operator="in"/><feComposite in="SourceGraphic"/></filter><clipPath id="clippath"><path class="cls-1" d="m47.71,6.7s.32-2.12,3.93-2.23c0,0,4.67-1.7,9.56-.11,0,0,4.46.32,3.72,3.5l-.74,2.44-1.38,3.61-2.12,5.31-3.29.95-5.31-1.27-3.4-6.68s-1.91-2.23-.96-5.52Z"/></clipPath><clipPath id="clippath-1"><polygon class="cls-1" points="47.94 5.68 48.67 10.22 50.52 11.47 53.7 16.13 55.47 18.79 57.92 20.35 52.89 20.07 50.92 18.74 47.3 11.47 46.61 8.37 47.94 5.68"/></clipPath><filter id="drop-shadow-8" filterUnits="userSpaceOnUse"><feOffset dx=".17" dy=".17"/><feGaussianBlur result="blur-8" stdDeviation="0"/><feFlood flood-color="#231815" flood-opacity=".3"/><feComposite in2="blur-8" operator="in"/><feComposite in="SourceGraphic"/></filter><filter id="drop-shadow-9" filterUnits="userSpaceOnUse"><feOffset dx=".17" dy=".17"/><feGaussianBlur result="blur-9" stdDeviation="0"/><feFlood flood-color="#231815" flood-opacity=".3"/><feComposite in2="blur-9" operator="in"/><feComposite in="SourceGraphic"/></filter><filter id="drop-shadow-10" filterUnits="userSpaceOnUse"><feOffset dx=".17" dy=".17"/><feGaussianBlur result="blur-10" stdDeviation="0"/><feFlood flood-color="#231815" flood-opacity=".3"/><feComposite in2="blur-10" operator="in"/><feComposite in="SourceGraphic"/></filter><filter id="drop-shadow-11" filterUnits="userSpaceOnUse"><feOffset dx=".17" dy=".17"/><feGaussianBlur result="blur-11" stdDeviation="0"/><feFlood flood-color="#231815" flood-opacity=".3"/><feComposite in2="blur-11" operator="in"/><feComposite in="SourceGraphic"/></filter><filter id="drop-shadow-12" filterUnits="userSpaceOnUse"><feOffset dx=".17" dy=".17"/><feGaussianBlur result="blur-12" stdDeviation="0"/><feFlood flood-color="#231815" flood-opacity=".3"/><feComposite in2="blur-12" operator="in"/><feComposite in="SourceGraphic"/></filter><filter id="drop-shadow-13" filterUnits="userSpaceOnUse"><feOffset dx=".17" dy=".17"/><feGaussianBlur result="blur-13" stdDeviation="0"/><feFlood flood-color="#231815" flood-opacity=".3"/><feComposite in2="blur-13" operator="in"/><feComposite in="SourceGraphic"/></filter><filter id="drop-shadow-14" filterUnits="userSpaceOnUse"><feOffset dx=".17" dy=".17"/><feGaussianBlur result="blur-14" stdDeviation="0"/><feFlood flood-color="#231815" flood-opacity=".3"/><feComposite in2="blur-14" operator="in"/><feComposite in="SourceGraphic"/></filter><filter id="drop-shadow-15" filterUnits="userSpaceOnUse"><feOffset dx=".17" dy=".17"/><feGaussianBlur result="blur-15" stdDeviation="0"/><feFlood flood-color="#231815" flood-opacity=".3"/><feComposite in2="blur-15" operator="in"/><feComposite in="SourceGraphic"/></filter><clipPath id="clippath-2"><path class="cls-1" d="m47.71,6.7s.32-2.12,3.93-2.23c0,0,4.67-1.7,9.56-.11,0,0,4.46.32,3.72,3.5l-.74,2.44-1.38,3.61-2.12,5.31-3.29.95-5.31-1.27-3.4-6.68s-1.91-2.23-.96-5.52Z"/></clipPath><clipPath id="clippath-3"><polygon class="cls-1" points="47.94 5.68 48.67 10.22 50.52 11.47 53.7 16.13 55.47 18.79 57.92 20.35 52.89 20.07 50.92 18.74 47.3 11.47 46.61 8.37 47.94 5.68"/></clipPath><filter id="drop-shadow-16" filterUnits="userSpaceOnUse"><feOffset dx=".17" dy=".17"/><feGaussianBlur result="blur-16" stdDeviation="0"/><feFlood flood-color="#231815" flood-opacity=".3"/><feComposite in2="blur-16" operator="in"/><feComposite in="SourceGraphic"/></filter><filter id="drop-shadow-17" filterUnits="userSpaceOnUse"><feOffset dx=".17" dy=".17"/><feGaussianBlur result="blur-17" stdDeviation="0"/><feFlood flood-color="#231815" flood-opacity=".3"/><feComposite in2="blur-17" operator="in"/><feComposite in="SourceGraphic"/></filter><filter id="drop-shadow-18" filterUnits="userSpaceOnUse"><feOffset dx=".17" dy=".17"/><feGaussianBlur result="blur-18" stdDeviation="0"/><feFlood flood-color="#231815" flood-opacity=".3"/><feComposite in2="blur-18" operator="in"/><feComposite in="SourceGraphic"/></filter><filter id="drop-shadow-19" filterUnits="userSpaceOnUse"><feOffset dx=".17" dy=".17"/><feGaussianBlur result="blur-19" stdDeviation="0"/><feFlood flood-color="#231815" flood-opacity=".3"/><feComposite in2="blur-19" operator="in"/><feComposite in="SourceGraphic"/></filter><clipPath id="clippath-4"><path class="cls-1" d="m19.7,2.19l-4.87,4.36.62,5.78c1.49.15,2.98.38,4.45.67,2.78.55,4.54,1.09,6.5,3.41,1.73,2.05,4.38,2.66,6.66,3.53,3.91,1.51,8.17,1.93,12.27,2.16l8.72-12.19-.32-1.03c-.26-.17-.43-.24-.43-.24,0,0-19.64-7.79-33.6-6.45Z"/></clipPath><filter id="drop-shadow-20" filterUnits="userSpaceOnUse"><feOffset dx=".17" dy=".17"/><feGaussianBlur result="blur-20" stdDeviation="0"/><feFlood flood-color="#231815" flood-opacity=".3"/><feComposite in2="blur-20" operator="in"/><feComposite in="SourceGraphic"/></filter><filter id="drop-shadow-21" filterUnits="userSpaceOnUse"><feOffset dx=".15" dy=".15"/><feGaussianBlur result="blur-21" stdDeviation="0"/><feFlood flood-color="#231815" flood-opacity=".3"/><feComposite in2="blur-21" operator="in"/><feComposite in="SourceGraphic"/></filter></defs><g class="cls-34"><g id="_レイヤー_2"><g id="_レイヤー_1-2"><path class="cls-24" d="m64.99,7.14c0-.1,0-.21-.02-.31-.01-.07-.03-.14-.05-.21-.02-.08-.03-.15-.06-.22-.03-.08-.07-.14-.1-.21-.03-.05-.05-.11-.08-.16-.05-.08-.1-.15-.16-.22-.03-.04-.05-.07-.09-.11-.07-.08-.14-.15-.22-.21-.02-.02-.05-.04-.07-.06-.09-.07-.18-.14-.28-.21-.01,0-.03-.02-.04-.03-.11-.07-.22-.13-.34-.19,0,0,0,0,0,0,0,0,0,0,0,0-1.06-.54-2.27-.63-2.28-.63h0c-.31-.1-.61-.19-.91-.26-.61-.15-1.2-.25-1.78-.32-1.45-.17-2.8-.1-3.92.04-.44.06-.85.13-1.21.2-.36.07-.67.15-.93.21s-.46.13-.6.17c-.14.04-.21.07-.21.07-.26,0-.5.03-.72.06-.07,0-.14.02-.21.03-.15.02-.3.05-.43.08-.07.02-.14.03-.2.05-.13.03-.25.07-.37.11-.05.02-.1.03-.15.05-.16.06-.3.12-.43.19,0,0-.01,0-.02.01-.13.07-.24.14-.34.21-.03.02-.07.05-.1.07-.07.05-.14.11-.2.16-.03.03-.06.05-.09.08-.06.06-.11.11-.16.17-.02.02-.04.04-.06.06-.06.08-.12.15-.17.23,0,0,0,0,0,0,0,0,0,0,0,0-.05.07-.08.14-.12.2,0,.02-.02.04-.03.05-.02.05-.04.09-.06.13,0,.02-.01.03-.02.05-.01.04-.03.07-.03.1,0,.01,0,.02,0,.03,0,.03-.02.06-.02.08-1.1-.36-2.34-.74-3.67-1.12,0,0-.02,0-.02,0-4.01-1.16-8.91-2.34-13.83-2.99h0c-.11-.02-.21-.03-.32-.04-.94-.12-1.89-.23-2.83-.3,0,0,0,0,0,0,0,0,0,0,0,0,0,0,0,0-.01,0-.18-.01-.35-.03-.53-.04,0,0,0,0,0,0,0,0,0,0,0,0-.29-.02-.59-.04-.88-.05-.05,0-.11,0-.16,0h0s0,0,0,0c0,0,0,0,0,0-.48-.02-.96-.04-1.44-.05-.03,0-.06,0-.09,0-.45,0-.89,0-1.33,0-.07,0-.14,0-.21,0-.4,0-.81.02-1.2.04-.11,0-.22.01-.34.02-.36.02-.71.05-1.07.08-.16.01-.31.03-.46.05-.31.03-.62.07-.92.11-.2.03-.4.06-.59.1-.25.04-.51.08-.75.13-.26.05-.52.12-.77.18-.18.04-.36.08-.54.13-.43.11-.85.24-1.27.38,0,0-1.07.54-2.48,1.51-.2.14-.41.29-.63.44-1.07.78-2.27,1.77-3.33,2.92-.64.7-1.22,1.45-1.71,2.26-.11.18-.21.36-.31.55-.19.37-.36.75-.5,1.14-.14.39-.25.79-.33,1.2s-.13.82-.13,1.25c0,.21,0,.43.02.64.41,5.59-1.62,10.95-2.41,12.78-.05.11-.09.2-.12.28-.11.24-.17.38-.18.38-.15.31-.25.7-.31,1.12-.03.21-.04.43-.04.65,0,.25.01.5.04.76.04.42.12.84.24,1.21.06.2.14.39.22.56.08.17.17.33.27.46.8,1.08,2.03,1.44,3.44,1.39,0,0,.01,0,.02,0,.28-.01.57-.04.87-.08.59-.08,1.19-.22,1.8-.4,2.43-.7,4.87-1.99,6.19-2.6h0c-.38-.65-.67-1.42-.89-2.25-.22-.83-.37-1.73-.47-2.64-.15-1.37-.19-2.76-.19-4,0-.41,0-.81.01-1.18,0-.01,0-.02,0-.03.01-.59.04-1.16.09-1.73.03-.35.06-.69.1-1.02.13-1.11.3-2.15.48-3.05.28-1.4.58-2.48.75-3.05.06-.19.1-.32.12-.39.01-.03.02-.05.02-.05.64.06,1.28.15,1.92.23.55.08,1.11.17,1.66.26l-2.67,14.66s2.06,1.7,4.21,2.71c.86.4,1.73.7,2.49.73.19,0,.37,0,.55-.03.17-.03.34-.07.49-.14.61-.27,1.16-.54,1.63-.79,1.42-.76,2.18-1.39,2.18-1.39l-1.96-9.64.02-.49.1-2.15.03-.56c.21.22.43.44.64.7.65.77,1.43,1.33,2.27,1.79.84.45,1.74.79,2.63,1.11.3.11.59.21.89.31s.58.21.87.32c.27.1.54.19.82.28l.35,20.23s2.42,1.22,5.04,1.95c.34.1.68.18,1.02.25,1.71.38,3.37.46,4.39-.21,1.93-1.27,3.18-2.43,3.79-3.04.11-.11.2-.2.27-.28.1-.1.16-.18.16-.18h0s-1.36-3.06-1.36-3.06c.54.22,1.06.39,1.56.47.06,0,.11.01.17.02.18.02.35.03.52.02.06,0,.12,0,.18,0,.21-.02.41-.06.6-.14,2.46-1.06,3.81-2.18,3.81-2.18l-1.96-9.64.06-1.18.12-2.55v-.24c.19-.13.36-.28.52-.42.05-.05.11-.09.16-.13.2-.18.39-.38.57-.59l3.51.84.19-.05.83-.24,2.28-.66,2.12-5.31,1.38-3.61.74-2.44c.05-.19.07-.38.08-.55,0-.06,0-.12,0-.18Z"/><path class="cls-6" d="m63.48,5c-1.06-.54-2.28-.63-2.28-.63-4.89-1.59-9.56.11-9.56.11-2.26.07-3.23.92-3.64,1.56-.2.31-.27.57-.28.65-4.43-1.43-10.95-3.26-17.53-4.13h0s-.05,0-.08-.01c-1.03-.14-2.06-.25-3.08-.33-.18-.01-.36-.03-.54-.04-.3-.02-.59-.04-.89-.05-.05,0-.1,0-.15,0h0c-3.99-.2-7.81.07-11,1.16,0,0-9.89,5.01-9.39,11.91.5,6.89-2.69,13.41-2.7,13.44-.62,1.26-.38,3.68.42,4.77,2.56,3.47,9.67-.47,12.32-1.69-1.51-2.59-1.6-7.09-1.54-10.07.09-4.92,1.55-9.32,1.55-9.32,1.2.11,2.39.29,3.58.49l-2.67,14.66s5.28,4.34,7.73,3.28,3.81-2.18,3.81-2.18l-1.96-9.64.16-3.19c.21.22.43.44.64.7,1.73,2.05,4.38,2.66,6.66,3.53.27.1.54.19.82.28l.35,20.23s7.66,3.85,10.46,2c2.8-1.85,4.22-3.49,4.22-3.49l-1.36-3.06c1.12.47,2.23.7,3.03.35,2.46-1.06,3.81-2.18,3.81-2.18l-1.96-9.64.06-1.18.14-2.78c.45-.32.86-.71,1.24-1.14l3.51.84.19-.05,3.1-.9,2.12-5.31,1.38-3.61.74-2.44c.35-1.52-.48-2.38-1.44-2.87Zm-19.57,22.09l-.81-5.13c.57.05,1.15.09,1.72.12l-.91,5.01Z"/><g class="cls-18"><g class="cls-23"><path class="cls-5" d="m19.58,7.83l-3.57,19.62s5.28,4.34,7.73,3.28,3.81-2.18,3.81-2.18l-1.96-9.64.44-9.08-4.06-3.3-2.41,1.29Z"/><polygon class="cls-15" points="21.36 9.92 19.1 10.49 17.85 17.36 25.63 18.42 25.92 12.5 21.36 9.92"/><path class="cls-5" d="m46.41,13.36l-3.57,19.62s5.28,4.34,7.73,3.28,3.81-2.18,3.81-2.18l-1.96-9.64.44-9.08-4.06-3.3-2.41,1.29Z"/><polygon class="cls-15" points="44.14 25.84 52.49 23.26 52.87 15.37 52.81 15.31 45.91 16.09 44.14 25.84"/><path class="cls-11" d="m53.3,8.64S28.04-1.38,14.44,3.26c0,0-9.89,5.01-9.39,11.91s-2.69,13.41-2.7,13.44c-.62,1.26-.38,3.68.42,4.77,2.56,3.47,9.67-.47,12.32-1.69-1.51-2.59-1.6-7.09-1.54-10.07.09-4.93,1.55-9.32,1.55-9.32,1.61.15,3.21.39,4.8.71,2.78.55,4.54,1.09,6.5,3.41,1.73,2.05,4.38,2.66,6.66,3.53,3.98,1.54,8.32,1.95,12.49,2.18,3.4.19,6.86-.85,8.77-4.22,3.99-7.08-1.01-9.26-1.01-9.26Z"/><path class="cls-11" d="m33.81,16.45l.42,24.02s7.66,3.85,10.46,2,4.22-3.49,4.22-3.49l-4.83-10.9-1.7-10.82-5.88-2.91-2.68,2.1Z"/><path class="cls-5" d="m53.91,8.64s-2.35-.93-5.99-2.09c-.57,2.55-2.09,10.48-.14,15.57,2.84-.2,5.54-1.38,7.13-4.22,3.99-7.08-1.01-9.26-1.01-9.26Z"/><path class="cls-14" d="m55.83,10.48c-.76-1.33-1.92-1.84-1.92-1.84,0,0-2.35-.93-5.99-2.09-.41,1.83-1.31,6.43-1.06,10.76l7.84-2.26,1.13-4.57Z"/><path class="cls-16" d="m52.69,8.64s-1.6-.64-4.21-1.51c-1.46,2.95-.1,5.41-.1,5.41l1.97,7.24,1.23.58c.82-.62,1.54-1.43,2.12-2.46,3.99-7.08-1.01-9.26-1.01-9.26Z"/></g><path class="cls-12" d="m47.71,6.7s.32-2.12,3.93-2.23c0,0,4.67-1.7,9.56-.11,0,0,4.46.32,3.72,3.5l-.74,2.44-1.38,3.61-2.12,5.31-3.29.95-5.31-1.27-3.4-6.68s-1.91-2.23-.96-5.52Z"/><path class="cls-7" d="m54.94,9.18s-1.77.72-1.57,2.13c0,0,.28,1.61,1.61,1.57,0,0,1.81.4,2.13-1.29,0,0,.28-1.73-.76-2.17,0,0-.81-.6-1.41-.24Z"/><path class="cls-8" d="m62.35,9.38s-1.21.32-1.17,1.29c0,0,.04,1.89,1.13,2.25,0,0,.81.08,1.33-1.57,0,0,.24-1.29-.32-1.89,0,0-.56-.36-.97-.08Z"/><path class="cls-4" d="m54.22,10.7s.16-.2.6.44c0,0,.52.4.85-.08,0,0,.36-.36.64-.32,0,0-.36.4-.52.84,0,0-1.29.87-1.29-.04,0-.2-.28-.84-.28-.84Z"/><path class="cls-4" d="m61.79,10.42s.68-.08.81.68c0,0,.6.44.72-.4,0,0,.16,1.53-.6,1.13,0,0-.36.04-.6-.72,0,0,.12-.52-.32-.68Z"/><path class="cls-32" d="m56.88,16.49s1.65.32,2.62-.04c0,0,.97-.2,1.49-.88l-.48,1.45s-.28,1.65-1.29,1.53c0,0-.81.4-1.65-1.01l-.68-1.05Z"/><g class="cls-3"><polygon class="cls-5" points="47.94 5.68 48.67 10.22 50.52 11.47 53.7 16.13 55.47 18.79 57.92 20.35 52.89 20.07 50.92 18.74 47.3 11.47 46.61 8.37 47.94 5.68"/><path class="cls-5" d="m61.2,4.37c.1-.06,2.04,3.4,2.04,3.4l.97-.44-.89-2.85-2.12-.1Z"/><g class="cls-19"><polygon class="cls-15" points="46.17 11.15 49.15 10.34 50.92 11.15 47.78 13.56 46.17 11.15"/><polygon class="cls-15" points="50.32 18.7 55.83 18.79 58.04 20.03 57.16 21.08 53.09 21.12 50.32 18.7"/></g></g><polygon class="cls-25" points="56.47 5 57.28 5 60.5 6 61.06 5.52 60.74 5.12 57.16 4.59 56.47 5"/><polygon class="cls-26" points="55.19 4.07 56.96 3.95 60.58 4.67 61.2 4.37 57.32 3.79 56.35 3.83 55.19 4.07"/><g class="cls-35"><path class="cls-5" d="m19.58,7.83l-3.57,19.62s5.28,4.34,7.73,3.28,3.81-2.18,3.81-2.18l-1.96-9.64.44-9.08-4.06-3.3-2.41,1.29Z"/><polygon class="cls-15" points="21.36 9.92 19.1 10.49 17.85 17.36 25.63 18.42 25.92 12.5 21.36 9.92"/><path class="cls-5" d="m46.41,13.36l-3.57,19.62s5.28,4.34,7.73,3.28,3.81-2.18,3.81-2.18l-1.96-9.64.44-9.08-4.06-3.3-2.41,1.29Z"/><polygon class="cls-15" points="44.14 25.84 52.49 23.26 52.87 15.37 52.81 15.31 45.91 16.09 44.14 25.84"/><path class="cls-11" d="m53.3,8.64S28.04-1.38,14.44,3.26c0,0-9.89,5.01-9.39,11.91s-2.69,13.41-2.7,13.44c-.62,1.26-.38,3.68.42,4.77,2.56,3.47,9.67-.47,12.32-1.69-1.51-2.59-1.6-7.09-1.54-10.07.09-4.93,1.55-9.32,1.55-9.32,1.61.15,3.21.39,4.8.71,2.78.55,4.54,1.09,6.5,3.41,1.73,2.05,4.38,2.66,6.66,3.53,3.98,1.54,8.32,1.95,12.49,2.18,3.4.19,6.86-.85,8.77-4.22,3.99-7.08-1.01-9.26-1.01-9.26Z"/><path class="cls-11" d="m33.81,16.45l.42,24.02s7.66,3.85,10.46,2,4.22-3.49,4.22-3.49l-4.83-10.9-1.7-10.82-5.88-2.91-2.68,2.1Z"/><path class="cls-5" d="m53.91,8.64s-2.35-.93-5.99-2.09c-.57,2.55-2.09,10.48-.14,15.57,2.84-.2,5.54-1.38,7.13-4.22,3.99-7.08-1.01-9.26-1.01-9.26Z"/><path class="cls-14" d="m55.83,10.48c-.76-1.33-1.92-1.84-1.92-1.84,0,0-2.35-.93-5.99-2.09-.41,1.83-1.31,6.43-1.06,10.76l7.84-2.26,1.13-4.57Z"/><path class="cls-17" d="m52.69,8.64s-1.6-.64-4.21-1.51c-1.46,2.95-.1,5.41-.1,5.41l1.97,7.24,1.23.58c.82-.62,1.54-1.43,2.12-2.46,3.99-7.08-1.01-9.26-1.01-9.26Z"/></g><path class="cls-13" d="m47.71,6.7s.32-2.12,3.93-2.23c0,0,4.67-1.7,9.56-.11,0,0,4.46.32,3.72,3.5l-.74,2.44-1.38,3.61-2.12,5.31-3.29.95-5.31-1.27-3.4-6.68s-1.91-2.23-.96-5.52Z"/><path class="cls-9" d="m54.94,9.18s-1.77.72-1.57,2.13c0,0,.28,1.61,1.61,1.57,0,0,1.81.4,2.13-1.29,0,0,.28-1.73-.76-2.17,0,0-.81-.6-1.41-.24Z"/><path class="cls-10" d="m62.35,9.38s-1.21.32-1.17,1.29c0,0,.04,1.89,1.13,2.25,0,0,.81.08,1.33-1.57,0,0,.24-1.29-.32-1.89,0,0-.56-.36-.97-.08Z"/><path class="cls-4" d="m54.22,10.7s.16-.2.6.44c0,0,.52.4.85-.08,0,0,.36-.36.64-.32,0,0-.36.4-.52.84,0,0-1.29.87-1.29-.04,0-.2-.28-.84-.28-.84Z"/><path class="cls-4" d="m61.79,10.42s.68-.08.81.68c0,0,.6.44.72-.4,0,0,.16,1.53-.6,1.13,0,0-.36.04-.6-.72,0,0,.12-.52-.32-.68Z"/><path class="cls-33" d="m56.88,16.49s1.65.32,2.62-.04c0,0,.97-.2,1.49-.88l-.48,1.45s-.28,1.65-1.29,1.53c0,0-.81.4-1.65-1.01l-.68-1.05Z"/><g class="cls-22"><polygon class="cls-5" points="47.94 5.68 48.67 10.22 50.52 11.47 53.7 16.13 55.47 18.79 57.92 20.35 52.89 20.07 50.92 18.74 47.3 11.47 46.61 8.37 47.94 5.68"/><path class="cls-5" d="m61.2,4.37c.1-.06,2.04,3.4,2.04,3.4l.97-.44-.89-2.85-2.12-.1Z"/><g class="cls-21"><polygon class="cls-15" points="46.17 11.15 49.15 10.34 50.92 11.15 47.78 13.56 46.17 11.15"/><polygon class="cls-15" points="50.32 18.7 55.83 18.79 58.04 20.03 57.16 21.08 53.09 21.12 50.32 18.7"/></g></g><polygon class="cls-27" points="56.47 5 57.28 5 60.5 6 61.06 5.52 60.74 5.12 57.16 4.59 56.47 5"/><polygon class="cls-31" points="55.19 4.07 56.96 3.95 60.58 4.67 61.2 4.37 57.32 3.79 56.35 3.83 55.19 4.07"/><polygon class="cls-30" points="34.69 13.66 35.97 12.04 44.12 8 43.54 5.71 41.81 5.4 34.55 11.32 34.69 13.66"/><polygon class="cls-29" points="26.47 11.42 27.75 9.81 35.9 5.77 35.32 3.48 33.59 3.16 26.33 9.09 26.47 11.42"/><g class="cls-20"><polygon class="cls-28" points="20.79 8.35 22.06 6.73 30.22 2.69 29.64 .4 27.91 .09 20.65 6.01 20.79 8.35"/></g></g><rect class="cls-2" width="67" height="45"/></g></g></g></svg>