<?xml version="1.0" encoding="UTF-8"?><svg xmlns="http://www.w3.org/2000/svg" xmlns:xlink="http://www.w3.org/1999/xlink" viewBox="0 0 65 65"><defs><style>.cls-1{fill:none;}.cls-2{clip-path:url(#clippath);}.cls-3{fill:#036eb7;}.cls-4{fill:#f5aa3e;}.cls-5,.cls-6{fill:#ffe100;}.cls-7{fill:#e73828;}.cls-8,.cls-9,.cls-10{fill:#9dbc2a;}.cls-11,.cls-12{fill:#c08242;}.cls-13{fill:#534741;}.cls-14{clip-path:url(#clippath-1);}.cls-15{fill:#606060;mix-blend-mode:multiply;opacity:.3;}.cls-12{filter:url(#drop-shadow-1);}.cls-9{filter:url(#drop-shadow-6);}.cls-10{filter:url(#drop-shadow-5);}.cls-6{filter:url(#drop-shadow-2);}.cls-16{filter:url(#drop-shadow-4);}.cls-16,.cls-17{fill:#fff;}.cls-17{filter:url(#drop-shadow-3);}.cls-18{isolation:isolate;}</style><filter id="drop-shadow-1" filterUnits="userSpaceOnUse"><feOffset dx=".18" dy=".18"/><feGaussianBlur result="blur" stdDeviation="0"/><feFlood flood-color="#231815" flood-opacity=".3"/><feComposite in2="blur" operator="in"/><feComposite in="SourceGraphic"/></filter><filter id="drop-shadow-2" filterUnits="userSpaceOnUse"><feOffset dx=".17" dy=".17"/><feGaussianBlur result="blur-2" stdDeviation="0"/><feFlood flood-color="#231815" flood-opacity=".3"/><feComposite in2="blur-2" operator="in"/><feComposite in="SourceGraphic"/></filter><filter id="drop-shadow-3" filterUnits="userSpaceOnUse"><feOffset dx=".17" dy=".17"/><feGaussianBlur result="blur-3" stdDeviation="0"/><feFlood flood-color="#231815" flood-opacity=".3"/><feComposite in2="blur-3" operator="in"/><feComposite in="SourceGraphic"/></filter><filter id="drop-shadow-4" filterUnits="userSpaceOnUse"><feOffset dx=".17" dy=".17"/><feGaussianBlur result="blur-4" stdDeviation="0"/><feFlood flood-color="#231815" flood-opacity=".3"/><feComposite in2="blur-4" operator="in"/><feComposite in="SourceGraphic"/></filter><clipPath id="clippath"><path class="cls-1" d="m24.66,16.48s.32-2.12,3.93-2.23c0,0,4.67-1.7,9.56-.11,0,0,4.46.32,3.72,3.5l-.74,2.44-1.38,3.61-2.12,5.31-3.29.95-5.31-1.27-3.4-6.68s-1.91-2.23-.96-5.52Z"/></clipPath><clipPath id="clippath-1"><polygon class="cls-1" points="24.89 15.46 25.62 20 27.47 21.25 30.65 25.91 32.42 28.56 34.88 30.13 29.84 29.85 27.87 28.52 24.25 21.25 23.56 18.15 24.89 15.46"/></clipPath><filter id="drop-shadow-5" filterUnits="userSpaceOnUse"><feOffset dx=".17" dy=".17"/><feGaussianBlur result="blur-5" stdDeviation="0"/><feFlood flood-color="#231815" flood-opacity=".3"/><feComposite in2="blur-5" operator="in"/><feComposite in="SourceGraphic"/></filter><filter id="drop-shadow-6" filterUnits="userSpaceOnUse"><feOffset dx=".17" dy=".17"/><feGaussianBlur result="blur-6" stdDeviation="0"/><feFlood flood-color="#231815" flood-opacity=".3"/><feComposite in2="blur-6" operator="in"/><feComposite in="SourceGraphic"/></filter></defs><g class="cls-18"><g id="_レイヤー_1"><path class="cls-13" d="m26.99,51.93c-.37,0-.77-.05-1.19-.16-2.35-.59-5.02-2.77-6.06-3.68,0,0-.28-.25-.28-.25-.25-.23-.43-.62-.38-.96l2.96-18.06c-.39-1.85-.35-3.75.11-5.1.27-.8.63-1.56,1.11-2.33l-.67-3.04c-.05-.22-.02-.45.08-.66l1.33-2.69c.16-.32.48-.53.82-.56.7-.6,1.82-1.12,3.59-1.2.57-.19,2.63-.79,5.28-.79,1.64,0,3.21.23,4.67.69.61.06,2.87.39,3.99,1.91.58.78.75,1.75.5,2.81l-.42,1.4s.13.26.13.26c.17.34.31.68.45,1.04,1.04,2.75,1.01,5.54-.04,7.92-.02.03-.03.07-.05.1l3,18.3c.05.33-.06.67-.31.89-.14.13-3.56,3.29-6.44,4-.2.05-.4.08-.59.11-.01,0-.1.01-.11.01-.17.02-.31.03-.45.03-.17,0-.26-.01-.35-.02v-1.01s-.11.99-.11.99c-.11-.01-.21-.02-.32-.05-.26-.06-.49-.15-.71-.26-2.22-1.19-3.62-2.4-4.04-2.8-.42.39-1.82,1.6-4.04,2.79-.43.23-.93.35-1.47.35Zm5.51-6.68l.04-.24s-.05.03-.07.04l.03.19Z"/><path class="cls-13" d="m33.68,13.47c1.37,0,2.91.17,4.47.68,0,0,4.46.32,3.72,3.5l-.53,1.73c.09.16.17.33.26.49.02.04.04.07.06.11.15.31.29.63.41.95,0,.01.01.03.02.04.85,2.26.98,4.82-.04,7.11-.05.12-.12.23-.17.34l3.05,18.62s-3.34,3.11-6,3.76h0c-.16.04-.32.07-.48.09-.04,0-.08,0-.11.01-.11.01-.22.02-.33.02-.02,0-.04,0-.05,0-.08,0-.15-.01-.23-.02-.09-.01-.17-.02-.26-.04-.16-.04-.32-.09-.46-.17-2.54-1.37-3.95-2.75-3.95-2.75l.59-3.56c-.35-.21-.69-.43-1-.64-.4.27-.83.54-1.28.81l.56,3.39s-1.41,1.39-3.95,2.75c-.3.16-.64.23-1,.23-.3,0-.62-.05-.95-.13,0,0,0,0,0,0-2.16-.54-4.75-2.68-5.64-3.46,0,0,0,0,0,0-.07-.06-.12-.1-.16-.14-.01-.01-.02-.02-.03-.03-.04-.04-.07-.06-.09-.08-.03-.02-.04-.04-.04-.04l2.99-18.24c-.38-1.71-.38-3.53.04-4.76.31-.93.76-1.77,1.28-2.54l-.13-.26-.68-3.1,1.33-2.69.06.35c.41-.63,1.38-1.49,3.64-1.56,0,0,2.17-.79,5.09-.79m-1.03,24.23c.15-.95.25-1.9.28-2.84,0-.21.03-.42.03-.63.04-.53.06-1.05.07-1.55-.25,0-.51-.01-.76-.02.01.51.03,1.04.07,1.57,0,1.15.12,2.32.31,3.48m1.03-26.23c-2.6,0-4.68.56-5.45.8-1.79.1-3.01.62-3.84,1.25-.55.14-1.03.52-1.29,1.05l-1.33,2.69c-.2.41-.26.87-.16,1.32l.59,2.65c-.41.72-.74,1.44-.99,2.18-.5,1.47-.56,3.48-.18,5.44l-2.93,17.88c-.11.66.12,1.33.61,1.78l.06.05.06.06,1.38-1.45-1.34,1.49.21.18c1.36,1.2,4.01,3.28,6.48,3.9.5.13.99.19,1.44.19.72,0,1.37-.16,1.95-.47,1.62-.87,2.83-1.76,3.57-2.36.74.6,1.95,1.49,3.57,2.36.3.16.61.28.97.36.13.03.28.05.43.07,0,0,.05,0,.05,0,.16.02.28.03.41.03h.09c.17,0,.34,0,.52-.03.08,0,.14-.01.19-.02.22-.03.46-.07.68-.13,3.08-.76,6.5-3.88,6.88-4.24.49-.46.72-1.13.61-1.79l-2.95-18c1.09-2.58,1.09-5.57,0-8.46,0-.02-.02-.06-.03-.08-.13-.34-.28-.68-.43-1.01l.29-.95s.02-.08.03-.13c.4-1.7-.15-2.91-.67-3.63-1.3-1.77-3.69-2.2-4.59-2.3-1.53-.47-3.16-.71-4.87-.71h0Z"/><path class="cls-11" d="m26.25,28.97c.83,5.85-.82,11.49-.82,11.52-.32,1.09.01,3.15.62,4.05,1.9,2.81,5.9-.33,7.77-1.58.07-.05.14-.1.17-.18.03-.09,0-.18-.04-.26-1.02-2.58-1.61-5.51-1.61-8.29-.3-4.2.36-7.98.36-7.98"/><path class="cls-15" d="m26.25,28.97c.27,1.89.27,3.75.16,5.41l5.95.44c0-.2-.03-.4-.03-.59-.3-4.2.36-7.98.36-7.98l-6.45,2.72Z"/><path class="cls-11" d="m39.05,28.97c-.83,5.85.82,11.49.82,11.52.32,1.09-.01,3.15-.62,4.05-1.9,2.81-5.9-.33-7.77-1.58-.07-.05-.14-.1-.17-.18-.03-.09,0-.18.04-.26,1.02-2.58,1.61-5.51,1.61-8.29.3-4.2-.36-7.98-.36-7.98"/><path class="cls-15" d="m32.61,26.24s.65,3.78.36,7.98c0,.21-.03.42-.03.63l6.03.44c-.18-1.88-.23-4.09.09-6.33l-6.45-2.72Z"/><path class="cls-5" d="m41.05,23.35l3.89,23.7s-5.38,5.02-7.92,3.65-3.95-2.75-3.95-2.75l1.91-11.5-.55-10.92,4.14-3.81,2.49,1.64Z"/><path class="cls-4" d="m38.4,45.4l-.7-12.27,1.38-11.08-.51-.34-4.14,3.81.55,10.92-1.91,11.5s1.41,1.39,3.95,2.75c.54.29,1.21.28,1.92.11l-.54-5.4Z"/><path class="cls-5" d="m23.95,23.35l-3.89,23.7s5.38,5.02,7.92,3.65,3.95-2.75,3.95-2.75l-1.91-11.5.55-10.92-4.14-3.81-2.49,1.64Z"/><path class="cls-4" d="m23.95,23.35l-3.89,23.7s3.31,3.09,5.97,3.75l-.64-6.4-.7-12.27,1.25-10.09-1.99,1.31Z"/><path class="cls-4" d="m27.58,33.34c.32-.08.63-.19.95-.29,2.86-.92,5.8.09,8.64-.63,2.1-.53,3.9-2.11,4.89-4.34,2.57-5.8-2.12-13.4-7.58-13.15-1.76.08-3.42.81-4.92,1.79-2.57,1.68-5.32,3.97-6.45,7.32-.96,2.85.25,8.83,3.47,9.35.34.06.68.02,1.01-.06Z"/><path class="cls-5" d="m34.47,14.94c-1.76.08-3.42.81-4.92,1.79-.63.41-1.27.86-1.9,1.36-.28.51-.53,1.05-.7,1.63-.78,2.59.65,8.19,3.71,8.82.33.07.64.05.95-.01.3-.06.59-.15.88-.22,2.66-.71,5.48.35,8.13-.18.58-.12,1.13-.33,1.64-.61,2.04-5.71-2.5-12.82-7.79-12.58Z"/><path class="cls-12" d="m41.47,19.61c-1.51-2.78-4.14-4.8-7-4.67-1.76.08-3.42.81-4.92,1.79-1.72,1.12-3.5,2.52-4.84,4.32.36,1.23.91,1.95.91,1.95l3.4,7.52,5.31,1.43,3.29-1.07,2.12-5.97,1.38-4.06.34-1.25Z"/><path class="cls-6" d="m24.66,16.48s.32-2.12,3.93-2.23c0,0,4.67-1.7,9.56-.11,0,0,4.46.32,3.72,3.5l-.74,2.44-1.38,3.61-2.12,5.31-3.29.95-5.31-1.27-3.4-6.68s-1.91-2.23-.96-5.52Z"/><path class="cls-17" d="m31.9,18.95s-1.77.72-1.57,2.13c0,0,.28,1.61,1.61,1.57,0,0,1.81.4,2.13-1.29,0,0,.28-1.73-.76-2.17,0,0-.81-.6-1.41-.24Z"/><path class="cls-16" d="m39.3,19.16s-1.21.32-1.17,1.29c0,0,.04,1.89,1.13,2.25,0,0,.81.08,1.33-1.57,0,0,.24-1.29-.32-1.89,0,0-.56-.36-.97-.08Z"/><path class="cls-3" d="m31.17,20.48s.16-.2.6.44c0,0,.52.4.85-.08,0,0,.36-.36.64-.32,0,0-.36.4-.52.84,0,0-1.29.87-1.29-.04,0-.2-.28-.84-.28-.84Z"/><path class="cls-3" d="m38.74,20.2s.68-.08.81.68c0,0,.6.44.72-.4,0,0,.16,1.53-.6,1.13,0,0-.36.04-.6-.72,0,0,.12-.52-.32-.68Z"/><path class="cls-7" d="m34.51,27.32c-.38-.57.06-.9.97-.72l.97-.36.58-.22c.5-.37.77-.23.59.3l-.16.48s-.28,1.65-1.29,1.53c0,0-.81.4-1.65-1.01h0Z"/><g class="cls-2"><polygon class="cls-4" points="24.89 15.46 25.62 20 27.47 21.25 30.65 25.91 32.42 28.56 34.88 30.13 29.84 29.85 27.87 28.52 24.25 21.25 23.56 18.15 24.89 15.46"/><path class="cls-4" d="m38.15,14.15c.1-.06,2.04,3.4,2.04,3.4l.97-.44-.89-2.85-2.12-.1Z"/><g class="cls-14"><polygon class="cls-8" points="23.12 20.92 26.1 20.12 27.87 20.92 24.73 23.34 23.12 20.92"/><polygon class="cls-8" points="27.27 28.48 32.78 28.56 35 29.81 34.11 30.85 30.05 30.89 27.27 28.48"/></g></g><polygon class="cls-10" points="33.43 14.77 34.23 14.77 37.45 15.78 38.02 15.3 37.69 14.89 34.11 14.37 33.43 14.77"/><polygon class="cls-9" points="32.14 13.85 33.91 13.73 37.53 14.45 38.15 14.15 34.27 13.57 33.31 13.61 32.14 13.85"/></g></g></svg>