<?xml version="1.0" encoding="UTF-8"?><svg id="_レイヤー_1" xmlns="http://www.w3.org/2000/svg" xmlns:xlink="http://www.w3.org/1999/xlink" viewBox="0 0 65 65"><defs><style>.cls-1{fill:none;}.cls-2{clip-path:url(#clippath);}.cls-3{fill:#036eb7;}.cls-4{fill:#f5aa3e;}.cls-5,.cls-6{fill:#ffe100;}.cls-7{fill:#e73828;}.cls-8{fill:#f0cc44;}.cls-9,.cls-10{fill:#c08242;}.cls-11{clip-path:url(#clippath-1);}.cls-12{clip-path:url(#clippath-2);}.cls-10{filter:url(#drop-shadow-5);}.cls-13{filter:url(#drop-shadow-3);}.cls-13,.cls-14,.cls-15,.cls-16,.cls-17{fill:#9dbc2a;}.cls-14{filter:url(#drop-shadow-2);}.cls-15{filter:url(#drop-shadow-4);}.cls-16{filter:url(#drop-shadow-9);}.cls-6{filter:url(#drop-shadow-6);}.cls-18{filter:url(#drop-shadow-7);}.cls-18,.cls-19{fill:#fff;}.cls-19{filter:url(#drop-shadow-8);}.cls-20{fill:#534741;filter:url(#drop-shadow-1);stroke:#534741;stroke-linecap:round;stroke-linejoin:round;stroke-width:2px;}.cls-17{filter:url(#drop-shadow-10);}</style><filter id="drop-shadow-1" filterUnits="userSpaceOnUse"><feOffset dx=".17" dy=".17"/><feGaussianBlur result="blur" stdDeviation="0"/><feFlood flood-color="#231815" flood-opacity=".3"/><feComposite in2="blur" operator="in"/><feComposite in="SourceGraphic"/></filter><filter id="drop-shadow-2" filterUnits="userSpaceOnUse"><feOffset dx=".17" dy=".17"/><feGaussianBlur result="blur-2" stdDeviation="0"/><feFlood flood-color="#231815" flood-opacity=".3"/><feComposite in2="blur-2" operator="in"/><feComposite in="SourceGraphic"/></filter><filter id="drop-shadow-3" filterUnits="userSpaceOnUse"><feOffset dx=".17" dy=".17"/><feGaussianBlur result="blur-3" stdDeviation="0"/><feFlood flood-color="#231815" flood-opacity=".3"/><feComposite in2="blur-3" operator="in"/><feComposite in="SourceGraphic"/></filter><clipPath id="clippath"><path class="cls-1" d="m17.24,17l-4.35,4.59.95,5.62c1.42.05,2.85.18,4.27.37,2.67.35,4.38.77,6.38,2.92,1.77,1.89,4.33,2.32,6.54,3.03,3.81,1.23,7.88,1.36,11.78,1.33l7.52-12.51-.37-.99c-.25-.15-.42-.21-.42-.21,0,0-19.13-6.36-32.3-4.15Z"/></clipPath><filter id="drop-shadow-4" filterUnits="userSpaceOnUse"><feOffset dx=".17" dy=".17"/><feGaussianBlur result="blur-4" stdDeviation="0"/><feFlood flood-color="#231815" flood-opacity=".3"/><feComposite in2="blur-4" operator="in"/><feComposite in="SourceGraphic"/></filter><filter id="drop-shadow-5" filterUnits="userSpaceOnUse"><feOffset dx=".17" dy=".17"/><feGaussianBlur result="blur-5" stdDeviation="0"/><feFlood flood-color="#231815" flood-opacity=".3"/><feComposite in2="blur-5" operator="in"/><feComposite in="SourceGraphic"/></filter><filter id="drop-shadow-6" filterUnits="userSpaceOnUse"><feOffset dx=".17" dy=".17"/><feGaussianBlur result="blur-6" stdDeviation="0"/><feFlood flood-color="#231815" flood-opacity=".3"/><feComposite in2="blur-6" operator="in"/><feComposite in="SourceGraphic"/></filter><filter id="drop-shadow-7" filterUnits="userSpaceOnUse"><feOffset dx=".17" dy=".17"/><feGaussianBlur result="blur-7" stdDeviation="0"/><feFlood flood-color="#231815" flood-opacity=".3"/><feComposite in2="blur-7" operator="in"/><feComposite in="SourceGraphic"/></filter><filter id="drop-shadow-8" filterUnits="userSpaceOnUse"><feOffset dx=".17" dy=".17"/><feGaussianBlur result="blur-8" stdDeviation="0"/><feFlood flood-color="#231815" flood-opacity=".3"/><feComposite in2="blur-8" operator="in"/><feComposite in="SourceGraphic"/></filter><clipPath id="clippath-1"><path class="cls-1" d="m45.51,16.88s.32-2.12,3.93-2.23c0,0,4.67-1.7,9.56-.11,0,0,4.46.32,3.72,3.5l-.74,2.44-1.38,3.61-2.12,5.31-3.29.95-5.31-1.27-3.4-6.68s-1.91-2.23-.96-5.52Z"/></clipPath><clipPath id="clippath-2"><polygon class="cls-1" points="45.74 15.85 46.47 20.4 48.32 21.64 51.5 26.31 53.27 28.96 55.73 30.53 50.69 30.25 48.72 28.92 45.1 21.64 44.41 18.55 45.74 15.85"/></clipPath><filter id="drop-shadow-9" filterUnits="userSpaceOnUse"><feOffset dx=".17" dy=".17"/><feGaussianBlur result="blur-9" stdDeviation="0"/><feFlood flood-color="#231815" flood-opacity=".3"/><feComposite in2="blur-9" operator="in"/><feComposite in="SourceGraphic"/></filter><filter id="drop-shadow-10" filterUnits="userSpaceOnUse"><feOffset dx=".17" dy=".17"/><feGaussianBlur result="blur-10" stdDeviation="0"/><feFlood flood-color="#231815" flood-opacity=".3"/><feComposite in2="blur-10" operator="in"/><feComposite in="SourceGraphic"/></filter></defs><path class="cls-20" d="m61.28,15.18l-.16-.53-2.12-.1c-4.89-1.59-9.56.11-9.56.11-2.26.07-3.23.92-3.64,1.56l-.06-.35-1.33,2.69.26,1.18s-.01,0-.02,0c-.19-.05-.38-.1-.58-.15-.14-.04-.27-.07-.41-.11-.2-.05-.4-.1-.6-.15-.15-.04-.3-.07-.45-.11-.21-.05-.43-.1-.65-.16-.15-.04-.3-.07-.45-.11-.23-.05-.46-.11-.7-.16-.15-.03-.3-.07-.46-.1-.25-.06-.5-.11-.75-.17-.14-.03-.29-.06-.43-.09-.28-.06-.55-.12-.83-.18-.04,0-.09-.02-.13-.03-.72-.15-1.45-.29-2.2-.42-.06-.01-.11-.02-.17-.03-.3-.05-.6-.1-.9-.16-.16-.03-.31-.05-.47-.08-.29-.05-.57-.09-.86-.14-.18-.03-.35-.05-.53-.08-.29-.04-.57-.08-.86-.12-.18-.03-.37-.05-.55-.07-.29-.04-.58-.07-.87-.11-.18-.02-.37-.04-.55-.06-.3-.03-.59-.07-.89-.1-.17-.02-.35-.03-.52-.05-.31-.03-.62-.06-.93-.08-.14-.01-.28-.02-.42-.03-1.09-.08-2.18-.13-3.26-.15-.18,0-.36,0-.53,0-.28,0-.56,0-.84,0-.2,0-.39,0-.59,0-.27,0-.54.02-.81.03-.2,0-.4.02-.6.03-.26.02-.52.03-.78.05-.2.02-.4.03-.61.05-.26.02-.51.05-.76.08-.2.02-.4.05-.6.08-.25.03-.5.07-.74.11-.04,0-.07,0-.11.02h0c-1.76.3-3.43.75-4.92,1.39,0,0-9.08,5.54-8.17,12.27.91,6.71-1.71,13.31-1.72,13.33-.51,1.27-.13,3.63.7,4.64,2.65,3.23,9.15-1.08,11.59-2.45-1.6-2.44-1.96-6.84-2.09-9.76-.22-4.83.89-9.23.89-9.23.4.01.81.05,1.22.07.4.02.8.04,1.21.08.73.06,1.46.14,2.18.24.24.03.46.07.68.1l-3.11,17.95s5.02,4.34,7.36,3.28c2.34-1.06,3.63-2.18,3.63-2.18l-1.86-9.64.28-6.04c1.72,1.43,3.97,1.85,5.95,2.48.48.16.97.29,1.45.41.09.02.19.04.28.06l.24,14.63s7.28,3.85,9.95,2c.85-.59,1.56-1.16,2.14-1.66,1.21.54,2.42.83,3.28.46,2.46-1.06,3.81-2.18,3.81-2.18l-1.96-9.64.06-1.18h0l.26-5.35s.02-.04.04-.06l.31.27,4.07-.04.62-.73h.14s-.1-.05-.1-.05l.22-.26-.05-.03,2.68-.78,2.12-5.31,1.38-3.61.74-2.44c.35-1.52-.48-2.38-1.44-2.87Zm-18.58,19.68l-.27,1.51-.05-.12-.21-1.39c.08,0,.17,0,.25,0,.09,0,.19,0,.28,0Z"/><path class="cls-4" d="m44.21,26.53l-3.57,19.62s5.28,4.34,7.73,3.28,3.81-2.18,3.81-2.18l-1.96-9.64.44-9.08-4.06-3.3-2.41,1.29Z"/><polygon class="cls-9" points="41.94 39.02 50.29 36.44 50.68 28.54 50.61 28.49 43.72 29.26 41.94 39.02"/><path class="cls-4" d="m19.08,26l-3.4,19.62s5.02,4.34,7.36,3.28,3.63-2.18,3.63-2.18l-1.86-9.64.42-9.08-3.86-3.3-2.29,1.29Z"/><polygon class="cls-9" points="17.44 35.48 24.83 36.54 25.23 28.01 21.37 24.71 19.08 26 17.44 35.48"/><path class="cls-5" d="m32.61,24.62l.4,24.02s7.28,3.85,9.95,2,4.01-3.49,4.01-3.49l-4.6-10.9-1.62-10.82-5.59-2.91-2.55,2.1Z"/><path class="cls-5" d="m49.55,21.15s-24.6-8.19-37.22-2.76c0,0-9.08,5.54-8.17,12.27s-1.71,13.31-1.72,13.33c-.51,1.27-.13,3.63.7,4.64,2.65,3.23,9.15-1.08,11.59-2.45-1.6-2.44-1.96-6.84-2.09-9.76-.22-4.83.89-9.23.89-9.23,1.53.05,3.07.18,4.6.38,2.67.35,4.38.77,6.38,2.92,1.77,1.89,4.33,2.32,6.54,3.03,3.88,1.25,8.02,1.37,11.99,1.33,3.24-.03,6.46-1.28,8.06-4.7,3.34-7.19-1.54-9-1.54-9Z"/><polygon class="cls-14" points="32.2 27.26 33.3 25.6 40.79 21.11 40.1 18.91 38.44 18.71 31.92 24.98 32.2 27.26"/><polygon class="cls-13" points="24.25 25.6 25.36 23.94 32.85 19.45 32.16 17.25 30.49 17.05 23.97 23.33 24.25 25.6"/><g class="cls-2"><polygon class="cls-15" points="18.67 22.96 19.78 21.29 27.26 16.81 26.57 14.61 24.91 14.41 18.39 20.68 18.67 22.96"/></g><path class="cls-4" d="m51.71,18.82s-2.35-.93-5.99-2.09c-.57,2.55-2.09,10.48-.14,15.57,2.84-.2,5.54-1.38,7.13-4.22,3.99-7.08-1.01-9.26-1.01-9.26Z"/><path class="cls-8" d="m53.63,20.65c-.76-1.33-1.92-1.84-1.92-1.84,0,0-2.35-.93-5.99-2.09-.41,1.83-1.31,6.43-1.06,10.76l7.84-2.26,1.13-4.57Z"/><path class="cls-10" d="m50.49,18.82s-1.6-.64-4.21-1.51c-1.46,2.95-.1,5.41-.1,5.41l1.97,7.24,1.23.58c.82-.62,1.54-1.43,2.12-2.46,3.99-7.08-1.01-9.26-1.01-9.26Z"/><path class="cls-6" d="m45.51,16.88s.32-2.12,3.93-2.23c0,0,4.67-1.7,9.56-.11,0,0,4.46.32,3.72,3.5l-.74,2.44-1.38,3.61-2.12,5.31-3.29.95-5.31-1.27-3.4-6.68s-1.91-2.23-.96-5.52Z"/><path class="cls-18" d="m52.75,19.35s-1.77.72-1.57,2.13c0,0,.28,1.61,1.61,1.57,0,0,1.81.4,2.13-1.29,0,0,.28-1.73-.76-2.17,0,0-.81-.6-1.41-.24Z"/><path class="cls-19" d="m60.15,19.55s-1.21.32-1.17,1.29c0,0,.04,1.89,1.13,2.25,0,0,.81.08,1.33-1.57,0,0,.24-1.29-.32-1.89,0,0-.56-.36-.97-.08Z"/><path class="cls-3" d="m52.02,20.88s.16-.2.6.44c0,0,.52.4.85-.08,0,0,.36-.36.64-.32,0,0-.36.4-.52.84,0,0-1.29.87-1.29-.04,0-.2-.28-.84-.28-.84Z"/><path class="cls-3" d="m59.59,20.6s.68-.08.81.68c0,0,.6.44.72-.4,0,0,.16,1.53-.6,1.13,0,0-.36.04-.6-.72,0,0,.12-.52-.32-.68Z"/><path class="cls-7" d="m55.36,27.71c-.38-.57.06-.9.97-.72l.97-.36.58-.22c.5-.37.77-.23.59.3l-.16.48s-.28,1.65-1.29,1.53c0,0-.81.4-1.65-1.01h0Z"/><g class="cls-11"><polygon class="cls-4" points="45.74 15.85 46.47 20.4 48.32 21.64 51.5 26.31 53.27 28.96 55.73 30.53 50.69 30.25 48.72 28.92 45.1 21.64 44.41 18.55 45.74 15.85"/><path class="cls-4" d="m59,14.54c.1-.06,2.04,3.4,2.04,3.4l.97-.44-.89-2.85-2.12-.1Z"/><g class="cls-12"><polygon class="cls-9" points="43.97 21.32 46.95 20.52 48.72 21.32 45.58 23.73 43.97 21.32"/><polygon class="cls-9" points="48.12 28.88 53.63 28.96 55.85 30.21 54.96 31.25 50.9 31.29 48.12 28.88"/></g></g><polygon class="cls-16" points="54.28 15.17 55.08 15.17 58.3 16.18 58.87 15.69 58.54 15.29 54.96 14.77 54.28 15.17"/><polygon class="cls-17" points="52.99 14.25 54.76 14.13 58.38 14.85 59 14.54 55.12 13.96 54.16 14.01 52.99 14.25"/></svg>