<?xml version="1.0" encoding="UTF-8"?><svg xmlns="http://www.w3.org/2000/svg" xmlns:xlink="http://www.w3.org/1999/xlink" viewBox="0 0 65 65"><defs><style>.cls-1,.cls-2{fill:#f5aa3e;}.cls-3,.cls-4{fill:#ffe100;}.cls-5{fill:#c08242;}.cls-6{fill:#534741;}.cls-7{fill:#606060;mix-blend-mode:multiply;opacity:.3;}.cls-2{filter:url(#drop-shadow-2);}.cls-4{filter:url(#drop-shadow-1);}.cls-8{isolation:isolate;}</style><filter id="drop-shadow-1" filterUnits="userSpaceOnUse"><feOffset dx=".17" dy=".17"/><feGaussianBlur result="blur" stdDeviation="0"/><feFlood flood-color="#231815" flood-opacity=".3"/><feComposite in2="blur" operator="in"/><feComposite in="SourceGraphic"/></filter><filter id="drop-shadow-2" filterUnits="userSpaceOnUse"><feOffset dx=".17" dy=".17"/><feGaussianBlur result="blur-2" stdDeviation="0"/><feFlood flood-color="#231815" flood-opacity=".3"/><feComposite in2="blur-2" operator="in"/><feComposite in="SourceGraphic"/></filter></defs><g class="cls-8"><g id="_レイヤー_1"><path class="cls-6" d="m38.01,52.13c-.55,0-1.04-.12-1.47-.35-2.22-1.19-3.61-2.4-4.04-2.79-.42.39-1.82,1.6-4.04,2.79-.22.12-.45.2-.71.26-.1.02-.2.04-.31.05l-.22-.98.12.99c-.09.01-.18.02-.28.02h-.03c-.2,0-.33,0-.47-.02l-.15-.02c-.18-.02-.37-.06-.57-.11-2.88-.71-6.3-3.87-6.44-4-.24-.23-.36-.56-.31-.89l3-18.3s-.03-.07-.05-.1c-1.05-2.37-1.07-5.17-.06-7.87.15-.4.3-.75.47-1.09,0,0,.11-.21.13-.26l-.41-1.33c-.26-1.12-.09-2.09.49-2.87,1.12-1.52,3.38-1.84,3.99-1.91,1.46-.46,3.03-.69,4.67-.69,2.65,0,4.7.6,5.28.79,1.77.08,2.89.6,3.59,1.2.35.03.66.23.82.56l1.33,2.69c.1.2.13.44.08.66l-.67,3.04c.48.77.84,1.53,1.11,2.33.46,1.35.5,3.25.11,5.1l2.96,18.06c.05.33-.06.67-.31.89l-.34.31c-1.04.91-3.71,3.09-6.06,3.68-.42.11-.83.16-1.19.16Zm-5.51-6.68l.03-.19s-.05-.03-.07-.04l.04.24Z"/><path class="cls-6" d="m31.32,13.66c2.93,0,5.09.79,5.09.79,2.26.07,3.23.92,3.64,1.56l.06-.35,1.33,2.69-.68,3.1-.13.26c.52.77.97,1.61,1.28,2.54.42,1.23.42,3.05.04,4.76l2.99,18.24s-.01.01-.04.04c-.02.02-.05.04-.09.08-.01,0-.02.02-.03.03-.05.04-.1.09-.16.14,0,0,0,0,0,0-.89.78-3.48,2.92-5.64,3.46,0,0,0,0,0,0-.33.08-.65.13-.95.13-.36,0-.7-.07-1-.23-2.54-1.37-3.95-2.75-3.95-2.75l.56-3.39c-.45-.26-.88-.54-1.28-.81-.32.21-.65.43-1,.64l.59,3.56s-1.41,1.39-3.95,2.75c-.15.08-.3.13-.46.17-.08.02-.17.03-.26.04-.08,0-.15.02-.23.02-.02,0-.04,0-.05,0-.11,0-.21,0-.33-.02-.04,0-.08,0-.11-.01-.16-.02-.32-.05-.48-.09h0c-2.66-.65-6-3.76-6-3.76l3.05-18.62c-.06-.12-.12-.22-.17-.34-1.02-2.29-.89-4.85-.04-7.11,0-.01.01-.03.02-.04.12-.32.26-.64.41-.95.02-.04.04-.07.06-.11.08-.17.17-.33.26-.49l-.53-1.73c-.74-3.18,3.72-3.5,3.72-3.5,1.56-.51,3.1-.68,4.47-.68m1.03,24.23c.19-1.16.31-2.33.31-3.48.04-.53.06-1.06.07-1.57-.25,0-.51,0-.76.02.01.51.03,1.03.07,1.55,0,.21.03.42.03.63.03.94.12,1.89.28,2.84m-1.03-26.23h0c-1.71,0-3.34.24-4.87.71-.9.1-3.29.53-4.59,2.3-.53.72-1.07,1.93-.67,3.63.01.04.02.09.03.13l.29.95c-.16.33-.3.67-.45,1.04,0,.02-.02.04-.02.06-1.08,2.87-1.08,5.87.01,8.45l-2.95,18c-.11.66.12,1.33.61,1.79.38.35,3.81,3.48,6.88,4.24.23.06.46.1.7.13.04,0,.09.01.14.02.21.02.38.03.55.03h.11c.11,0,.24-.01.36-.03,0,0,.05,0,.05,0,.19-.02.34-.04.49-.08.34-.08.65-.19.95-.35,1.62-.87,2.83-1.76,3.57-2.36.74.6,1.95,1.49,3.57,2.36.58.31,1.23.47,1.95.47.45,0,.93-.06,1.44-.19,2.47-.62,5.12-2.71,6.47-3.9l.19-.17s.07-.06.07-.06l.07-.06.05-.05c.48-.46.71-1.13.61-1.78l-2.93-17.88c.38-1.96.32-3.97-.18-5.44-.25-.74-.58-1.46-.99-2.18l.59-2.65c.1-.44.04-.91-.16-1.32l-1.33-2.69c-.26-.53-.74-.91-1.29-1.05-.83-.63-2.05-1.15-3.84-1.25-.77-.24-2.85-.8-5.45-.8h0Z"/><path class="cls-5" d="m38.75,29.16c-.83,5.85.82,11.49.82,11.52.32,1.09-.01,3.15-.62,4.05-1.9,2.81-5.9-.33-7.77-1.58-.07-.05-.14-.1-.17-.18-.03-.09,0-.18.04-.26,1.02-2.58,1.61-5.51,1.61-8.29.3-4.2-.36-7.98-.36-7.98"/><path class="cls-7" d="m38.75,29.16c-.27,1.89-.27,3.75-.16,5.41l-5.95.44c0-.2.03-.4.03-.59.3-4.2-.36-7.98-.36-7.98l6.45,2.72Z"/><path class="cls-5" d="m25.95,29.16c.83,5.85-.82,11.49-.82,11.52-.32,1.09.01,3.15.62,4.05,1.9,2.81,5.9-.33,7.77-1.58.07-.05.14-.1.17-.18.03-.09,0-.18-.04-.26-1.02-2.58-1.61-5.51-1.61-8.29-.3-4.2.36-7.98.36-7.98"/><path class="cls-7" d="m32.39,26.44s-.65,3.78-.36,7.98c0,.21.03.42.03.63l-6.03.44c.18-1.88.23-4.09-.09-6.33l6.45-2.72Z"/><path class="cls-3" d="m23.95,23.55l-3.89,23.7s5.38,5.02,7.92,3.65,3.95-2.75,3.95-2.75l-1.91-11.5.55-10.92-4.14-3.81-2.49,1.64Z"/><path class="cls-1" d="m26.6,45.6l.7-12.27-1.38-11.08.51-.34,4.14,3.81-.55,10.92,1.91,11.5s-1.41,1.39-3.95,2.75c-.54.29-1.21.28-1.92.11l.54-5.4Z"/><path class="cls-3" d="m41.05,23.55l3.89,23.7s-5.38,5.02-7.92,3.65-3.95-2.75-3.95-2.75l1.91-11.5-.55-10.92,4.14-3.81,2.49,1.64Z"/><path class="cls-1" d="m41.05,23.55l3.89,23.7s-3.31,3.09-5.97,3.75l.64-6.4.7-12.27-1.25-10.09,1.99,1.31Z"/><path class="cls-4" d="m40.34,16.68s-.32-2.12-3.93-2.23c0,0-4.67-1.7-9.56-.11,0,0-4.46.32-3.72,3.5l.74,2.44,1.38,3.61,2.12,5.31,3.29.95,5.31-1.27,3.4-6.68s1.91-2.23.96-5.52Z"/><path class="cls-2" d="m28.1,16.28s-3.2.23-4.86,1.94l.63,2.07,1.38,3.61,2.12,5.31,3.29.95,5.31-1.27,3.4-6.68s1.91-2.23.96-5.52c0,0-.08-.48-.54-.99-2.78-.52-7.18-.89-11.71.58Z"/><path class="cls-1" d="m37.42,33.54c-.32-.08-.63-.19-.95-.29-2.86-.92-5.8.09-8.64-.63-2.1-.53-3.9-2.11-4.89-4.34-2.57-5.8,2.12-13.4,7.58-13.15,1.76.08,3.42.81,4.92,1.79,2.57,1.68,5.32,3.97,6.45,7.32.96,2.85-.25,8.83-3.47,9.35-.34.06-.68.02-1.01-.06Z"/><path class="cls-3" d="m30.53,15.14c1.76.08,3.42.81,4.92,1.79.63.41,1.27.86,1.9,1.36.28.51.53,1.05.7,1.63.78,2.59-.65,8.19-3.71,8.82-.33.07-.64.05-.95-.01-.3-.06-.59-.15-.88-.22-2.66-.71-5.48.35-8.13-.18-.58-.12-1.13-.33-1.64-.61-2.04-5.71,2.5-12.82,7.79-12.58Z"/></g></g></svg>