<?xml version="1.0" encoding="UTF-8"?><svg id="_レイヤー_1" xmlns="http://www.w3.org/2000/svg" xmlns:xlink="http://www.w3.org/1999/xlink" viewBox="0 0 65 65"><defs><style>.cls-1{fill:none;}.cls-2{clip-path:url(#clippath);}.cls-3{fill:#036eb7;}.cls-4{fill:#f5aa3e;}.cls-5,.cls-6{fill:#ffe100;}.cls-7{fill:#e73828;}.cls-8{fill:#f0cc44;}.cls-9,.cls-10{fill:#c08242;}.cls-11{clip-path:url(#clippath-1);}.cls-12{clip-path:url(#clippath-2);}.cls-10{filter:url(#drop-shadow-5);}.cls-13{filter:url(#drop-shadow-3);}.cls-13,.cls-14,.cls-15,.cls-16,.cls-17{fill:#9dbc2a;}.cls-14{filter:url(#drop-shadow-2);}.cls-15{filter:url(#drop-shadow-4);}.cls-16{filter:url(#drop-shadow-9);}.cls-6{filter:url(#drop-shadow-6);}.cls-18{filter:url(#drop-shadow-7);}.cls-18,.cls-19{fill:#fff;}.cls-19{filter:url(#drop-shadow-8);}.cls-20{fill:#534741;filter:url(#drop-shadow-1);stroke:#534741;stroke-linecap:round;stroke-linejoin:round;stroke-width:2px;}.cls-17{filter:url(#drop-shadow-10);}</style><filter id="drop-shadow-1" filterUnits="userSpaceOnUse"><feOffset dx=".17" dy=".17"/><feGaussianBlur result="blur" stdDeviation="0"/><feFlood flood-color="#231815" flood-opacity=".3"/><feComposite in2="blur" operator="in"/><feComposite in="SourceGraphic"/></filter><filter id="drop-shadow-2" filterUnits="userSpaceOnUse"><feOffset dx=".17" dy=".17"/><feGaussianBlur result="blur-2" stdDeviation="0"/><feFlood flood-color="#231815" flood-opacity=".3"/><feComposite in2="blur-2" operator="in"/><feComposite in="SourceGraphic"/></filter><filter id="drop-shadow-3" filterUnits="userSpaceOnUse"><feOffset dx=".17" dy=".17"/><feGaussianBlur result="blur-3" stdDeviation="0"/><feFlood flood-color="#231815" flood-opacity=".3"/><feComposite in2="blur-3" operator="in"/><feComposite in="SourceGraphic"/></filter><clipPath id="clippath"><path class="cls-1" d="m47.76,17l4.35,4.59-.95,5.62c-1.42.05-2.85.18-4.27.37-2.67.35-4.38.77-6.38,2.92-1.77,1.89-4.33,2.32-6.54,3.03-3.81,1.23-7.88,1.36-11.78,1.33l-7.52-12.51.37-.99c.25-.15.42-.21.42-.21,0,0,19.13-6.36,32.3-4.15Z"/></clipPath><filter id="drop-shadow-4" filterUnits="userSpaceOnUse"><feOffset dx=".17" dy=".17"/><feGaussianBlur result="blur-4" stdDeviation="0"/><feFlood flood-color="#231815" flood-opacity=".3"/><feComposite in2="blur-4" operator="in"/><feComposite in="SourceGraphic"/></filter><filter id="drop-shadow-5" filterUnits="userSpaceOnUse"><feOffset dx=".17" dy=".17"/><feGaussianBlur result="blur-5" stdDeviation="0"/><feFlood flood-color="#231815" flood-opacity=".3"/><feComposite in2="blur-5" operator="in"/><feComposite in="SourceGraphic"/></filter><filter id="drop-shadow-6" filterUnits="userSpaceOnUse"><feOffset dx=".17" dy=".17"/><feGaussianBlur result="blur-6" stdDeviation="0"/><feFlood flood-color="#231815" flood-opacity=".3"/><feComposite in2="blur-6" operator="in"/><feComposite in="SourceGraphic"/></filter><filter id="drop-shadow-7" filterUnits="userSpaceOnUse"><feOffset dx=".17" dy=".17"/><feGaussianBlur result="blur-7" stdDeviation="0"/><feFlood flood-color="#231815" flood-opacity=".3"/><feComposite in2="blur-7" operator="in"/><feComposite in="SourceGraphic"/></filter><filter id="drop-shadow-8" filterUnits="userSpaceOnUse"><feOffset dx=".17" dy=".17"/><feGaussianBlur result="blur-8" stdDeviation="0"/><feFlood flood-color="#231815" flood-opacity=".3"/><feComposite in2="blur-8" operator="in"/><feComposite in="SourceGraphic"/></filter><clipPath id="clippath-1"><path class="cls-1" d="m19.49,16.88s-.32-2.12-3.93-2.23c0,0-4.67-1.7-9.56-.11,0,0-4.46.32-3.72,3.5l.74,2.44,1.38,3.61,2.12,5.31,3.29.95,5.31-1.27,3.4-6.68s1.91-2.23.96-5.52Z"/></clipPath><clipPath id="clippath-2"><polygon class="cls-1" points="19.26 15.85 18.53 20.4 16.68 21.64 13.5 26.31 11.73 28.96 9.27 30.53 14.31 30.25 16.28 28.92 19.9 21.64 20.59 18.55 19.26 15.85"/></clipPath><filter id="drop-shadow-9" filterUnits="userSpaceOnUse"><feOffset dx=".17" dy=".17"/><feGaussianBlur result="blur-9" stdDeviation="0"/><feFlood flood-color="#231815" flood-opacity=".3"/><feComposite in2="blur-9" operator="in"/><feComposite in="SourceGraphic"/></filter><filter id="drop-shadow-10" filterUnits="userSpaceOnUse"><feOffset dx=".17" dy=".17"/><feGaussianBlur result="blur-10" stdDeviation="0"/><feFlood flood-color="#231815" flood-opacity=".3"/><feComposite in2="blur-10" operator="in"/><feComposite in="SourceGraphic"/></filter></defs><path class="cls-20" d="m2.28,18.05l.74,2.44,1.38,3.61,2.12,5.31,2.68.78-.05.03.22.26-.1.06h.14s.62.72.62.72l4.07.04.31-.27s.02.04.04.06l.26,5.35h0l.06,1.18-1.96,9.64s1.35,1.11,3.81,2.18c.86.37,2.07.08,3.28-.46.58.5,1.29,1.07,2.14,1.66,2.67,1.85,9.95-2,9.95-2l.24-14.63c.09-.02.19-.04.28-.06.49-.12.97-.26,1.45-.41,1.98-.64,4.23-1.05,5.95-2.48l.28,6.04-1.86,9.64s1.29,1.11,3.63,2.18c2.34,1.06,7.36-3.28,7.36-3.28l-3.11-17.95c.22-.03.44-.07.68-.1.72-.1,1.45-.17,2.18-.24.4-.03.8-.05,1.21-.08.41-.02.81-.06,1.22-.07,0,0,1.12,4.4.89,9.23-.14,2.91-.49,7.32-2.09,9.76,2.44,1.37,8.94,5.68,11.59,2.45.83-1.01,1.2-3.37.7-4.64-.01-.03-2.63-6.62-1.72-13.33.91-6.73-8.17-12.27-8.17-12.27-1.49-.64-3.15-1.09-4.92-1.38h0s-.07-.01-.11-.02c-.24-.04-.49-.07-.74-.11-.2-.03-.4-.06-.6-.08-.25-.03-.51-.06-.76-.08-.2-.02-.4-.04-.61-.05-.26-.02-.52-.04-.78-.05-.2-.01-.4-.02-.6-.03-.27-.01-.54-.02-.81-.03-.19,0-.39,0-.59,0-.28,0-.56,0-.84,0-.18,0-.35,0-.53,0-1.08.02-2.17.07-3.26.15-.14.01-.28.02-.42.03-.31.02-.62.05-.93.08-.17.02-.35.03-.52.05-.3.03-.59.06-.89.1-.19.02-.37.04-.55.06-.29.03-.58.07-.87.11-.18.02-.37.05-.55.07-.29.04-.58.08-.86.12-.18.03-.35.05-.53.08-.29.04-.58.09-.86.14-.16.03-.31.05-.47.08-.3.05-.61.1-.9.16-.06.01-.11.02-.17.03-.75.14-1.49.28-2.2.42-.04,0-.09.02-.13.03-.28.06-.56.12-.83.18-.14.03-.29.06-.43.09-.25.06-.5.11-.75.17-.15.03-.31.07-.46.1-.24.05-.47.11-.7.16-.15.04-.3.07-.45.11-.22.05-.44.1-.65.16-.15.04-.3.07-.45.11-.2.05-.41.1-.6.15-.14.04-.27.07-.41.11-.19.05-.39.1-.58.15,0,0-.01,0-.02,0l.26-1.18-1.33-2.69-.06.35c-.41-.63-1.38-1.49-3.64-1.56,0,0-4.67-1.7-9.56-.11l-2.12.1-.16.53c-.96.49-1.79,1.35-1.44,2.87Zm20.3,16.81c.08,0,.17,0,.25,0l-.21,1.39-.05.12-.27-1.51c.09,0,.19,0,.28,0Z"/><path class="cls-4" d="m20.79,26.53l3.57,19.62s-5.28,4.34-7.73,3.28c-2.46-1.06-3.81-2.18-3.81-2.18l1.96-9.64-.44-9.08,4.06-3.3,2.41,1.29Z"/><polygon class="cls-9" points="23.06 39.02 14.71 36.44 14.32 28.54 14.39 28.49 21.28 29.26 23.06 39.02"/><path class="cls-4" d="m45.92,26l3.4,19.62s-5.02,4.34-7.36,3.28-3.63-2.18-3.63-2.18l1.86-9.64-.42-9.08,3.86-3.3,2.29,1.29Z"/><polygon class="cls-9" points="47.56 35.48 40.17 36.54 39.77 28.01 43.63 24.71 45.92 26 47.56 35.48"/><path class="cls-5" d="m32.39,24.62l-.4,24.02s-7.28,3.85-9.95,2-4.01-3.49-4.01-3.49l4.6-10.9,1.62-10.82,5.59-2.91,2.55,2.1Z"/><path class="cls-5" d="m15.45,21.15s24.6-8.19,37.22-2.76c0,0,9.08,5.54,8.17,12.27-.91,6.71,1.71,13.31,1.72,13.33.51,1.27.13,3.63-.7,4.64-2.65,3.23-9.15-1.08-11.59-2.45,1.6-2.44,1.96-6.84,2.09-9.76.22-4.83-.89-9.23-.89-9.23-1.53.05-3.07.18-4.6.38-2.67.35-4.38.77-6.38,2.92-1.77,1.89-4.33,2.32-6.54,3.03-3.88,1.25-8.02,1.37-11.99,1.33-3.24-.03-6.46-1.28-8.06-4.7-3.34-7.19,1.54-9,1.54-9Z"/><polygon class="cls-14" points="32.8 27.26 31.7 25.6 24.21 21.11 24.9 18.91 26.56 18.71 33.08 24.98 32.8 27.26"/><polygon class="cls-13" points="40.75 25.6 39.64 23.94 32.15 19.45 32.84 17.25 34.51 17.05 41.03 23.33 40.75 25.6"/><g class="cls-2"><polygon class="cls-15" points="46.33 22.96 45.22 21.29 37.74 16.81 38.43 14.61 40.09 14.41 46.61 20.68 46.33 22.96"/></g><path class="cls-4" d="m13.29,18.82s2.35-.93,5.99-2.09c.57,2.55,2.09,10.48.14,15.57-2.84-.2-5.54-1.38-7.13-4.22-3.99-7.08,1.01-9.26,1.01-9.26Z"/><path class="cls-8" d="m11.37,20.65c.76-1.33,1.92-1.84,1.92-1.84,0,0,2.35-.93,5.99-2.09.41,1.83,1.31,6.43,1.06,10.76l-7.84-2.26-1.13-4.57Z"/><path class="cls-10" d="m14.51,18.82s1.6-.64,4.21-1.51c1.46,2.95.1,5.41.1,5.41l-1.97,7.24-1.23.58c-.82-.62-1.54-1.43-2.12-2.46-3.99-7.08,1.01-9.26,1.01-9.26Z"/><path class="cls-6" d="m19.49,16.88s-.32-2.12-3.93-2.23c0,0-4.67-1.7-9.56-.11,0,0-4.46.32-3.72,3.5l.74,2.44,1.38,3.61,2.12,5.31,3.29.95,5.31-1.27,3.4-6.68s1.91-2.23.96-5.52Z"/><path class="cls-18" d="m12.25,19.35s1.77.72,1.57,2.13c0,0-.28,1.61-1.61,1.57,0,0-1.81.4-2.13-1.29,0,0-.28-1.73.76-2.17,0,0,.81-.6,1.41-.24Z"/><path class="cls-19" d="m4.85,19.55s1.21.32,1.17,1.29c0,0-.04,1.89-1.13,2.25,0,0-.81.08-1.33-1.57,0,0-.24-1.29.32-1.89,0,0,.56-.36.97-.08Z"/><path class="cls-3" d="m12.98,20.88s-.16-.2-.6.44c0,0-.52.4-.85-.08,0,0-.36-.36-.64-.32,0,0,.36.4.52.84,0,0,1.29.87,1.29-.04,0-.2.28-.84.28-.84Z"/><path class="cls-3" d="m5.41,20.6s-.68-.08-.81.68c0,0-.6.44-.72-.4,0,0-.16,1.53.6,1.13,0,0,.36.04.6-.72,0,0-.12-.52.32-.68Z"/><path class="cls-7" d="m9.64,27.71c.38-.57-.06-.9-.97-.72l-.97-.36-.58-.22c-.5-.37-.77-.23-.59.3l.16.48s.28,1.65,1.29,1.53c0,0,.81.4,1.65-1.01h0Z"/><g class="cls-11"><polygon class="cls-4" points="19.26 15.85 18.53 20.4 16.68 21.64 13.5 26.31 11.73 28.96 9.27 30.53 14.31 30.25 16.28 28.92 19.9 21.64 20.59 18.55 19.26 15.85"/><path class="cls-4" d="m6,14.54c-.1-.06-2.04,3.4-2.04,3.4l-.97-.44.89-2.85,2.12-.1Z"/><g class="cls-12"><polygon class="cls-9" points="21.03 21.32 18.05 20.52 16.28 21.32 19.42 23.73 21.03 21.32"/><polygon class="cls-9" points="16.88 28.88 11.37 28.96 9.15 30.21 10.04 31.25 14.1 31.29 16.88 28.88"/></g></g><polygon class="cls-16" points="10.72 15.17 9.92 15.17 6.7 16.18 6.13 15.69 6.46 15.29 10.04 14.77 10.72 15.17"/><polygon class="cls-17" points="12.01 14.25 10.24 14.13 6.62 14.85 6 14.54 9.88 13.96 10.84 14.01 12.01 14.25"/></svg>