<?xml version="1.0" encoding="utf-8"?>
<!-- Generator: Adobe Illustrator 27.3.1, SVG Export Plug-In . SVG Version: 6.00 Build 0)  -->
<svg version="1.1" id="_レイヤー_2" xmlns="http://www.w3.org/2000/svg" xmlns:xlink="http://www.w3.org/1999/xlink" x="0px"
	 y="0px" viewBox="0 0 1178.5 1178.5" style="enable-background:new 0 0 1178.5 1178.5;" xml:space="preserve">
<style type="text/css">
	.st0{fill:url(#SVGID_1_);}
	.st1{fill:#E60012;}
	.st2{fill:url(#SVGID_00000168807963169256677150000017833615706755431842_);}
	.st3{fill:url(#SVGID_00000032622916659972082620000012327722538529089459_);}
	.st4{fill:url(#SVGID_00000066496434580071610000000000387865390323959186_);}
	.st5{fill:#B2171D;}
	.st6{fill:#971E1B;}
	.st7{fill:#E3CF71;}
	.st8{fill:url(#SVGID_00000112618855381006917460000014751860213809989292_);}
	.st9{fill:url(#SVGID_00000123418596816265765490000007174676492133791387_);}
	.st10{fill:#BBAC5D;}
	.st11{fill:url(#SVGID_00000010992395903555285170000005520850112673376172_);}
</style>
<g id="_レイヤー_1-2">
	
		<linearGradient id="SVGID_1_" gradientUnits="userSpaceOnUse" x1="-5328.2998" y1="416.945" x2="-4771.21" y2="416.945" gradientTransform="matrix(-1 0 0 -1 -4738.46 1177.78)">
		<stop  offset="0.24" style="stop-color:#DF0615"/>
		<stop  offset="1" style="stop-color:#D0121B"/>
	</linearGradient>
	<polygon class="st0" points="32.8,956.3 589.2,1172.6 589.8,565.4 33.3,349.1 	"/>
	<polygon class="st1" points="589.2,132.7 1145.7,349.1 589.2,565.4 32.8,349.1 	"/>
	
		<linearGradient id="SVGID_00000160899282524103375870000017161888307049787793_" gradientUnits="userSpaceOnUse" x1="588.62" y1="764.665" x2="1178.49" y2="764.665" gradientTransform="matrix(1 0 0 -1 0 1177.78)">
		<stop  offset="0.24" style="stop-color:#DF0615"/>
		<stop  offset="1" style="stop-color:#D0121B"/>
	</linearGradient>
	<polygon style="fill:url(#SVGID_00000160899282524103375870000017161888307049787793_);" points="1178.5,350.5 589.2,579.6 
		588.6,475.7 1177.9,246.6 	"/>
	
		<linearGradient id="SVGID_00000136369370259311605380000014214557925597736100_" gradientUnits="userSpaceOnUse" x1="-5884.2002" y1="416.945" x2="-5327.1099" y2="416.945" gradientTransform="matrix(-1 0 0 -1 -4738.46 1177.78)">
		<stop  offset="0.24" style="stop-color:#DF0615"/>
		<stop  offset="1" style="stop-color:#D0121B"/>
	</linearGradient>
	<polygon style="fill:url(#SVGID_00000136369370259311605380000014214557925597736100_);" points="1145.7,956.3 589.2,1172.6 
		588.7,565.4 1145.2,349.1 	"/>
	
		<linearGradient id="SVGID_00000145738031229521051960000009579982786756036481_" gradientUnits="userSpaceOnUse" x1="588.62" y1="764.665" x2="1178.49" y2="764.665" gradientTransform="matrix(1 0 0 -1 0 1177.78)">
		<stop  offset="0.24" style="stop-color:#DF0615"/>
		<stop  offset="1" style="stop-color:#D0121B"/>
	</linearGradient>
	<polygon style="fill:url(#SVGID_00000145738031229521051960000009579982786756036481_);" points="1178.5,350.5 589.2,579.6 
		588.6,475.7 1177.9,246.6 	"/>
	<polygon class="st1" points="589.2,17.5 0,246.6 589.2,475.7 1178.5,246.6 	"/>
	<polygon class="st5" points="0,387.5 589.2,616.6 589.9,475.7 0.6,246.6 	"/>
	<polyline class="st6" points="589.2,617.1 1178.5,388 1177.9,245.1 589.2,473.9 	"/>
	<polygon class="st7" points="835.9,379.5 835.9,1076.7 964.8,1026.6 964.8,329.5 	"/>
	<polygon class="st7" points="964.8,329.5 388.7,95.5 259.8,145.6 835.9,379.5 	"/>
	<polygon class="st7" points="342.5,379.5 342.5,1076.7 213.7,1026.6 213.7,329.5 	"/>
	<polygon class="st7" points="213.7,329.5 789.8,95.5 918.7,145.6 342.5,379.5 	"/>
	
		<linearGradient id="SVGID_00000044873025077000971110000012946680335795648132_" gradientUnits="userSpaceOnUse" x1="245.3" y1="794.02" x2="571.67" y2="794.02" gradientTransform="matrix(1 0 0 -1 0 1177.78)">
		<stop  offset="0.24" style="stop-color:#B4A55A"/>
		<stop  offset="1" style="stop-color:#E3CF71"/>
	</linearGradient>
	<path style="fill:url(#SVGID_00000044873025077000971110000012946680335795648132_);" d="M491.3,190.5c0,0-208.4,135.6-246,311.3
		l90.4-22.6l75.3,97.9c0,0,52.7-328.9,160.7-328.9L491.3,190.5L491.3,190.5z"/>
	
		<linearGradient id="SVGID_00000020378045710703778780000014000419843093316773_" gradientUnits="userSpaceOnUse" x1="-5900.96" y1="794.02" x2="-5574.5996" y2="794.02" gradientTransform="matrix(-1 0 0 -1 -4967.7598 1177.78)">
		<stop  offset="0.24" style="stop-color:#B4A55A"/>
		<stop  offset="1" style="stop-color:#E3CF71"/>
	</linearGradient>
	<path style="fill:url(#SVGID_00000020378045710703778780000014000419843093316773_);" d="M687.2,190.5c0,0,208.4,135.6,246,311.3
		l-90.4-22.6l-75.3,97.9c0,0-52.7-328.9-160.7-328.9L687.2,190.5L687.2,190.5z"/>
	<path class="st10" d="M222.3,99.2l-29.6,99.1c0,0,24.2,107.1,376.4,56.9l-4.2-97.8L222.3,99.2L222.3,99.2z"/>
	<path class="st10" d="M956.2,99.2l29.6,99.1c0,0-24.2,107.1-376.4,56.9l4.2-97.8L956.2,99.2L956.2,99.2z"/>
	<path class="st7" d="M238.4,33.1l-45.7,165.3c0,0,211.5-96.9,361.1,52.5l6.5-141C560.3,109.8,375.2-58.2,238.4,33.1z"/>
	<path class="st7" d="M940.1,33.1l45.7,165.3c0,0-211.5-96.9-361.1,52.5l-6.5-141C618.2,109.8,803.3-58.2,940.1,33.1L940.1,33.1z"/>
	
		<linearGradient id="SVGID_00000126286496268577334190000007269848162504286393_" gradientUnits="userSpaceOnUse" x1="589.25" y1="891.93" x2="589.25" y2="1122.9" gradientTransform="matrix(1 0 0 -1 0 1177.78)">
		<stop  offset="0.24" style="stop-color:#B4A55A"/>
		<stop  offset="1" style="stop-color:#E3CF71"/>
	</linearGradient>
	<path style="fill:url(#SVGID_00000126286496268577334190000007269848162504286393_);" d="M648.2,220.5c0,36.1-26.4,65.4-59,65.4
		l0,0c-32.6,0-59-29.3-59-65.4V120.3c0-36.1,26.4-65.4,59-65.4l0,0c32.6,0,59,29.3,59,65.4V220.5L648.2,220.5z"/>
</g>
</svg>
