<?xml version="1.0" encoding="UTF-8"?><svg id="_レイヤー_2" xmlns="http://www.w3.org/2000/svg" xmlns:xlink="http://www.w3.org/1999/xlink" viewBox="0 0 312.25 212.2"><defs><style>.cls-1{fill:none;}.cls-2{clip-path:url(#clippath);}.cls-3{fill:#036eb8;}.cls-4{fill:#f1cd45;}.cls-5{fill:#f6ab3e;}.cls-6,.cls-7{fill:#ffe200;}.cls-8,.cls-9{fill:#c18243;}.cls-10{clip-path:url(#clippath-1);}.cls-11{clip-path:url(#clippath-2);}.cls-12{filter:url(#drop-shadow-1);}.cls-9{filter:url(#drop-shadow-2);}.cls-13{filter:url(#drop-shadow-9);}.cls-13,.cls-14,.cls-15,.cls-16,.cls-17{fill:#9ebd2b;}.cls-14{filter:url(#drop-shadow-8);}.cls-15{filter:url(#drop-shadow-7);}.cls-18{fill:#e83828;filter:url(#drop-shadow-6);}.cls-19{filter:url(#drop-shadow-5);}.cls-19,.cls-20{fill:#fff;}.cls-20{filter:url(#drop-shadow-4);}.cls-7{filter:url(#drop-shadow-3);}.cls-16{filter:url(#drop-shadow-10);}.cls-17{filter:url(#drop-shadow-11);}</style><filter id="drop-shadow-1" filterUnits="userSpaceOnUse"><feOffset dx=".85" dy=".85"/><feGaussianBlur result="blur" stdDeviation="0"/><feFlood flood-color="#231815" flood-opacity=".3"/><feComposite in2="blur" operator="in"/><feComposite in="SourceGraphic"/></filter><filter id="drop-shadow-2" filterUnits="userSpaceOnUse"><feOffset dx=".85" dy=".85"/><feGaussianBlur result="blur-2" stdDeviation="0"/><feFlood flood-color="#231815" flood-opacity=".3"/><feComposite in2="blur-2" operator="in"/><feComposite in="SourceGraphic"/></filter><filter id="drop-shadow-3" filterUnits="userSpaceOnUse"><feOffset dx=".85" dy=".85"/><feGaussianBlur result="blur-3" stdDeviation="0"/><feFlood flood-color="#231815" flood-opacity=".3"/><feComposite in2="blur-3" operator="in"/><feComposite in="SourceGraphic"/></filter><filter id="drop-shadow-4" filterUnits="userSpaceOnUse"><feOffset dx=".85" dy=".85"/><feGaussianBlur result="blur-4" stdDeviation="0"/><feFlood flood-color="#231815" flood-opacity=".3"/><feComposite in2="blur-4" operator="in"/><feComposite in="SourceGraphic"/></filter><filter id="drop-shadow-5" filterUnits="userSpaceOnUse"><feOffset dx=".85" dy=".85"/><feGaussianBlur result="blur-5" stdDeviation="0"/><feFlood flood-color="#231815" flood-opacity=".3"/><feComposite in2="blur-5" operator="in"/><feComposite in="SourceGraphic"/></filter><filter id="drop-shadow-6" filterUnits="userSpaceOnUse"><feOffset dx=".85" dy=".85"/><feGaussianBlur result="blur-6" stdDeviation="0"/><feFlood flood-color="#231815" flood-opacity=".3"/><feComposite in2="blur-6" operator="in"/><feComposite in="SourceGraphic"/></filter><clipPath id="clippath"><path class="cls-1" d="m225.92,32.76s1.58-10.5,19.43-11.03c0,0,23.11-8.4,47.26-.53,0,0,22.06,1.58,18.38,17.33l-3.68,12.08-6.83,17.85-10.5,26.26-16.28,4.73-26.26-6.3-16.8-33.08s-9.45-11.03-4.73-27.31Z"/></clipPath><clipPath id="clippath-1"><polygon class="cls-1" points="227.06 27.69 230.65 50.17 239.8 56.34 255.52 79.42 264.27 92.55 276.41 100.31 251.54 98.91 241.79 92.35 223.88 56.34 220.5 41.02 227.06 27.69"/></clipPath><filter id="drop-shadow-7" filterUnits="userSpaceOnUse"><feOffset dx=".85" dy=".85"/><feGaussianBlur result="blur-7" stdDeviation="0"/><feFlood flood-color="#231815" flood-opacity=".3"/><feComposite in2="blur-7" operator="in"/><feComposite in="SourceGraphic"/></filter><filter id="drop-shadow-8" filterUnits="userSpaceOnUse"><feOffset dx=".85" dy=".85"/><feGaussianBlur result="blur-8" stdDeviation="0"/><feFlood flood-color="#231815" flood-opacity=".3"/><feComposite in2="blur-8" operator="in"/><feComposite in="SourceGraphic"/></filter><filter id="drop-shadow-9" filterUnits="userSpaceOnUse"><feOffset dx=".85" dy=".85"/><feGaussianBlur result="blur-9" stdDeviation="0"/><feFlood flood-color="#231815" flood-opacity=".3"/><feComposite in2="blur-9" operator="in"/><feComposite in="SourceGraphic"/></filter><filter id="drop-shadow-10" filterUnits="userSpaceOnUse"><feOffset dx=".85" dy=".85"/><feGaussianBlur result="blur-10" stdDeviation="0"/><feFlood flood-color="#231815" flood-opacity=".3"/><feComposite in2="blur-10" operator="in"/><feComposite in="SourceGraphic"/></filter><clipPath id="clippath-2"><path class="cls-1" d="m87.47,10.42l-24.07,21.58,3.08,28.61c7.36.76,14.71,1.87,22,3.3,13.72,2.7,22.44,5.4,32.12,16.9,8.53,10.13,21.67,13.14,32.89,17.49,19.35,7.5,40.39,9.56,60.63,10.71l43.11-60.35-1.57-5.11c-1.26-.83-2.12-1.21-2.12-1.21,0,0-97.05-38.56-166.08-31.93Z"/></clipPath><filter id="drop-shadow-11" filterUnits="userSpaceOnUse"><feOffset dx=".85" dy=".85"/><feGaussianBlur result="blur-11" stdDeviation="0"/><feFlood flood-color="#231815" flood-opacity=".3"/><feComposite in2="blur-11" operator="in"/><feComposite in="SourceGraphic"/></filter></defs><g id="_レイヤー_1-2"><g class="cls-12"><path class="cls-5" d="m86.9,38.31l-17.64,97.11s26.08,21.49,38.23,16.22c12.15-5.27,18.85-10.78,18.85-10.78l-9.67-47.69,2.18-44.92-20.06-16.32-11.89,6.38Z"/><polygon class="cls-8" points="95.7 48.66 84.5 51.52 78.32 85.51 116.78 90.73 118.2 61.45 95.7 48.66"/><path class="cls-5" d="m219.5,65.7l-17.64,97.11s26.08,21.49,38.23,16.22c12.15-5.27,18.85-10.78,18.85-10.78l-9.67-47.69,2.18-44.92-20.06-16.32-11.89,6.38Z"/><polygon class="cls-8" points="208.28 127.47 249.55 114.71 251.44 75.63 251.11 75.36 217.05 79.21 208.28 127.47"/><path class="cls-6" d="m253.55,42.35S128.71-7.26,61.5,15.72c0,0-48.9,24.77-46.42,58.92,2.47,34.08-13.29,66.37-13.36,66.51-3.05,6.23-1.87,18.23,2.08,23.59,12.65,17.16,47.81-2.32,60.89-8.37-7.48-12.83-7.88-35.11-7.62-49.82.43-24.37,7.67-46.12,7.67-46.12,7.94.76,15.88,1.95,23.73,3.49,13.72,2.7,22.44,5.4,32.12,16.9,8.53,10.13,21.67,13.14,32.89,17.49,19.69,7.63,41.15,9.63,61.71,10.78,16.8.93,33.93-4.21,43.32-20.91,19.7-35.02-4.98-45.83-4.98-45.83Z"/><path class="cls-6" d="m157.2,80.97l2.08,118.86s37.85,19.04,51.69,9.88,20.84-17.28,20.84-17.28l-23.89-53.93-8.42-53.54-29.06-14.4-13.24,10.41Z"/><path class="cls-5" d="m256.55,42.35s-11.59-4.6-29.6-10.36c-2.83,12.62-10.31,51.86-.69,77.05,14.02-.97,27.37-6.84,35.26-20.86,19.7-35.02-4.98-45.83-4.98-45.83Z"/><path class="cls-4" d="m266.05,51.44c-3.73-6.57-9.5-9.09-9.5-9.09,0,0-11.59-4.6-29.6-10.36-2.03,9.06-6.46,31.82-5.24,53.27l38.75-11.21,5.59-22.61Z"/><path class="cls-9" d="m250.55,42.35s-7.92-3.14-20.82-7.48c-7.19,14.58-.48,26.79-.48,26.79l9.72,35.81,6.07,2.86c4.06-3.09,7.63-7.08,10.48-12.16,19.7-35.02-4.98-45.83-4.98-45.83Z"/></g><path class="cls-7" d="m225.92,32.76s1.58-10.5,19.43-11.03c0,0,23.11-8.4,47.26-.53,0,0,22.06,1.58,18.38,17.33l-3.68,12.08-6.83,17.85-10.5,26.26-16.28,4.73-26.26-6.3-16.8-33.08s-9.45-11.03-4.73-27.31Z"/><path class="cls-20" d="m261.68,45s-8.75,3.58-7.76,10.54c0,0,1.39,7.96,7.96,7.76,0,0,8.95,1.99,10.54-6.37,0,0,1.39-8.56-3.78-10.74,0,0-3.98-2.98-6.96-1.19Z"/><path class="cls-19" d="m298.29,45.99s-5.97,1.59-5.77,6.37c0,0,.2,9.35,5.57,11.14,0,0,3.98.4,6.57-7.76,0,0,1.19-6.37-1.59-9.35,0,0-2.79-1.79-4.77-.4Z"/><path class="cls-3" d="m258.1,52.56s.8-.99,2.98,2.19c0,0,2.59,1.99,4.18-.4,0,0,1.79-1.79,3.18-1.59,0,0-1.79,1.99-2.59,4.18,0,0-6.37,4.3-6.37-.2,0-.99-1.39-4.18-1.39-4.18Z"/><path class="cls-3" d="m295.51,51.16s3.38-.4,3.98,3.38c0,0,2.98,2.19,3.58-1.99,0,0,.8,7.56-2.98,5.57,0,0-1.79.2-2.98-3.58,0,0,.6-2.59-1.59-3.38Z"/><path class="cls-18" d="m271.23,81.21s8.16,1.59,12.93-.2c0,0,4.77-.99,7.36-4.38l-2.39,7.16s-1.39,8.16-6.37,7.56c0,0-3.98,1.99-8.16-4.97l-3.38-5.17Z"/><g class="cls-2"><polygon class="cls-5" points="227.06 27.69 230.65 50.17 239.8 56.34 255.52 79.42 264.27 92.55 276.41 100.31 251.54 98.91 241.79 92.35 223.88 56.34 220.5 41.02 227.06 27.69"/><path class="cls-5" d="m292.61,21.2c.51-.28,10.06,16.83,10.06,16.83l4.77-2.19-4.38-14.13-10.46-.52Z"/><g class="cls-10"><polygon class="cls-8" points="218.31 54.74 233.03 50.77 241.79 54.74 226.27 66.68 218.31 54.74"/><polygon class="cls-8" points="238.8 92.15 266.06 92.55 277 98.71 272.63 103.89 252.53 104.09 238.8 92.15"/></g></g><polygon class="cls-15" points="269.24 24.3 273.22 24.3 289.14 29.28 291.92 26.89 290.33 24.9 272.63 22.31 269.24 24.3"/><polygon class="cls-14" points="262.88 19.73 271.63 19.13 289.54 22.71 292.61 21.2 273.42 18.34 268.65 18.53 262.88 19.73"/><polygon class="cls-13" points="161.58 67.17 167.88 59.19 208.17 39.17 205.33 27.86 196.77 26.29 160.89 55.62 161.58 67.17"/><polygon class="cls-16" points="120.95 56.12 127.25 48.13 167.54 28.11 164.7 16.81 156.14 15.24 120.27 44.57 120.95 56.12"/><g class="cls-11"><polygon class="cls-17" points="92.87 40.88 99.17 32.9 139.46 12.88 136.62 1.57 128.06 0 92.18 29.33 92.87 40.88"/></g></g></svg>