<svg width="2e3" height="1200" version="1.1" viewBox="0 0 529.16 317.5" xmlns="http://www.w3.org/2000/svg">
	<g>
		<path d="m-0.0033333 0h529.13c0.0185 0 0.0335 0.014751 0.0335 0.033073v317.43c0 0.0183-0.015 0.0331-0.0335 0.0331h-529.13c-0.018555 0-0.033494-0.0147-0.033494-0.0331v-317.43c1e-7 -0.018322 0.014938-0.033073 0.033494-0.033073z" fill="#ffcc00" style="paint-order:markers fill stroke"/>
	</g>
	<g fill="#ffffff">
		<path transform="matrix(.26458 0 0 .26458 -.0033333 0)" d="m25 0-25 58.334v116.67h100l-75-175zm75 175h150l-75-175-75 175zm0 0-75 175h150l-75-175zm75 175h150l-75-175-75 175zm0 0-75 175h150l-75-175zm75 175h150l-75-175-75 175zm0 0-75 175h150l-75-175zm75 175h150l-75-175-75 175zm0 0-75 175h150l-75-175zm75 175h150l-75-175-75 175zm0 0-75 175h150l-75-175zm75 175h150l-75-175-75 175zm0 0-64.285 150h128.57l-64.285-150zm75-175h150l-75-175-75 175zm75-175-75-175-75 175h150zm0 0h150l-75-175-75 175zm75-175-75-175-75 175h150zm0 0h150l-75-175-75 175zm75-175-75-175-75 175h150zm0 0h150l-75-175-75 175zm75-175-75-175-75 175h150zm0 0h150l-75-175-75 175zm150 0h150l-75-175-75 175zm0 0-75 175h150l-75-175zm75 175h150l-75-175-75 175zm0 0-75 175h150l-75-175zm75 175h150l-75-175-75 175zm0 0-75 175h150l-75-175zm75 175h150l-75-175-75 175zm0 0-75 175h150l-75-175zm75 175h150l-75-175-75 175zm0 0-75 175h150l-75-175zm75 175h150l-75-175-75 175zm0 0-64.285 150h128.57l-64.285-150zm75-175h150l-75-175-75 175zm75-175-75-175-75 175h150zm0 0h150l-75-175-75 175zm75-175-75-175-75 175h150zm0 0h150l-75-175-75 175zm75-175-75-175-75 175h150zm0 0h150l-75-175-75 175zm75-175-75-175-75 175h150zm0 0h150l-75-175-75 175zm150 0h100v-116.67l-25-58.334-75 175zm0 0-75 175h150l-75-175zm75 175h25v-58.334l-25 58.334zm0 0-75 175h100v-116.67l-25-58.334zm-75 175-75 175h150l-75-175zm0 0-75-175-75 175h150zm-150 0-75 175h150l-75-175zm75 175-75 175h150l-75-175zm75 175h100v-116.67l-25-58.334-75 175zm0 0-75 175h150l-75-175zm75 175h25v-58.334l-25 58.334zm0 0-64.285 150h89.285v-91.666l-25-58.334zm-150 0-64.285 150h128.57l-64.285-150zm0 0-75-175-75 175h150zm-150 0-64.285 150h128.57l-64.285-150zm0 0-75-175-75 175h150zm-150 0-64.285 150h128.57l-64.285-150zm75-175h150l-75-175-75 175zm375-175h25v-58.334l-25 58.334zm-375-525-75-175-75 175h150zm-150 0-75 175h150l-75-175zm0 0-75-175-75 175h150zm-150 0-75 175h150l-75-175zm0 0-75-175-75 175h150zm75 175-75 175h150l-75-175zm-150 700-64.285 150h128.57l-64.285-150zm0 0-75-175-75 175h150zm-150 0-64.285 150h128.57l-64.285-150zm0 0-75-175-75 175h150zm-150 0-64.285 150h128.57l-64.285-150zm0 0-75-175-75 175h150zm-150 0-64.285 150h128.57l-64.285-150zm0 0-75-175-75 175h150zm-150 0-64.285 150h128.57l-64.285-150zm75-175h150l-75-175-75 175zm75-175h150l-75-175-75 175zm75-175h150l-75-175-75 175zm150 0-75 175h150l-75-175zm75 175-75 175h150l-75-175zm-75 175-75-175-75 175h150zm-300-700-75-175-75 175h150zm-150 0-75 175h150l-75-175zm0 0-75-175-75 175h150zm-150 0-75 175h150l-75-175zm0 0-75-175-75 175h150zm75 175-75 175h150l-75-175zm-150 700-64.285 150h128.57l-64.285-150zm0 0-75-175-75 175h150zm-150 0-64.285 150h128.57l-64.285-150zm0 0-75-175-75 175h150zm-150 0-25 58.334v91.666h89.285l-64.285-150zm0 0-25-58.334v58.334h25zm75-175-75-175-25 58.334v116.67h100zm0 0h150l-75-175-75 175zm75-175-75-175-75 175h150zm-150 0-25-58.334v58.334h25zm75-175-75-175-25 58.334v116.67h100zm-75-175-25-58.334v58.334h25z" opacity=".3"/>
		<path transform="matrix(.26458 0 0 .26458 -.0033333 0)" d="m175 0-75 175h150l-75-175zm1200 0-75 175h150l-75-175zm600 0-75 175h100v-116.67l-25-58.334zm-1425 175 75 175 75-175h-150zm450 0 75 175 75-175h-150zm525 175 75 175 75-175h-150zm-1525 175v116.67l25 58.334 75-175h-100zm550 0-75 175h150l-75-175zm600 0-75 175h150l-75-175zm675 175-75 175h150l-75-175zm-1725 175-75 175h150l-75-175zm750 0 75 175 75-175h-150zm600 0 75 175 75-175h-150zm-1125 175 64.285 150h21.43l64.285-150h-150zm900 0-64.285 150h128.57l-64.285-150zm600 0 64.285 150h21.43l64.285-150h-150z"/>
	</g>
</svg>
