<?xml version="1.0" encoding="UTF-8"?><svg xmlns="http://www.w3.org/2000/svg" xmlns:xlink="http://www.w3.org/1999/xlink" viewBox="0 0 67.88 45.55"><defs><style>.cls-1{fill:none;}.cls-2{clip-path:url(#clippath);}.cls-3{fill:#036eb7;}.cls-4{fill:#f5aa3e;}.cls-5,.cls-6,.cls-7,.cls-8,.cls-9{fill:#fff;}.cls-10,.cls-11,.cls-12{fill:#ffe100;}.cls-13{fill:#f0cc44;}.cls-14,.cls-15,.cls-16{fill:#c08242;}.cls-17{mix-blend-mode:multiply;}.cls-18{fill:#534741;filter:url(#drop-shadow-1);stroke:#534741;stroke-miterlimit:10;stroke-width:2px;}.cls-19{clip-path:url(#clippath-1);}.cls-20{clip-path:url(#clippath-4);}.cls-21{clip-path:url(#clippath-3);}.cls-22{clip-path:url(#clippath-2);}.cls-23{filter:url(#drop-shadow-2);}.cls-15{filter:url(#drop-shadow-3);}.cls-24{filter:url(#drop-shadow-8);}.cls-24,.cls-25,.cls-26,.cls-27,.cls-28,.cls-29,.cls-30{fill:#9dbc2a;}.cls-25{filter:url(#drop-shadow-9);}.cls-31{filter:url(#drop-shadow-7);}.cls-31,.cls-32{fill:#e73828;}.cls-11{filter:url(#drop-shadow-4);}.cls-6{filter:url(#drop-shadow-5);}.cls-7{filter:url(#drop-shadow-6);}.cls-16{filter:url(#drop-shadow-11);}.cls-26{filter:url(#drop-shadow-16);}.cls-27{filter:url(#drop-shadow-20);}.cls-28{filter:url(#drop-shadow-19);}.cls-29{filter:url(#drop-shadow-18);}.cls-30{filter:url(#drop-shadow-17);}.cls-12{filter:url(#drop-shadow-12);}.cls-8{filter:url(#drop-shadow-13);}.cls-9{filter:url(#drop-shadow-14);}.cls-32{filter:url(#drop-shadow-15);}.cls-33{isolation:isolate;}.cls-34{filter:url(#drop-shadow-10);}</style><filter id="drop-shadow-1" filterUnits="userSpaceOnUse"><feOffset dx=".17" dy=".17"/><feGaussianBlur result="blur" stdDeviation="0"/><feFlood flood-color="#231815" flood-opacity=".3"/><feComposite in2="blur" operator="in"/><feComposite in="SourceGraphic"/></filter><filter id="drop-shadow-2" filterUnits="userSpaceOnUse"><feOffset dx=".17" dy=".17"/><feGaussianBlur result="blur-2" stdDeviation="0"/><feFlood flood-color="#231815" flood-opacity=".3"/><feComposite in2="blur-2" operator="in"/><feComposite in="SourceGraphic"/></filter><filter id="drop-shadow-3" filterUnits="userSpaceOnUse"><feOffset dx=".17" dy=".17"/><feGaussianBlur result="blur-3" stdDeviation="0"/><feFlood flood-color="#231815" flood-opacity=".3"/><feComposite in2="blur-3" operator="in"/><feComposite in="SourceGraphic"/></filter><filter id="drop-shadow-4" filterUnits="userSpaceOnUse"><feOffset dx=".17" dy=".17"/><feGaussianBlur result="blur-4" stdDeviation="0"/><feFlood flood-color="#231815" flood-opacity=".3"/><feComposite in2="blur-4" operator="in"/><feComposite in="SourceGraphic"/></filter><filter id="drop-shadow-5" filterUnits="userSpaceOnUse"><feOffset dx=".17" dy=".17"/><feGaussianBlur result="blur-5" stdDeviation="0"/><feFlood flood-color="#231815" flood-opacity=".3"/><feComposite in2="blur-5" operator="in"/><feComposite in="SourceGraphic"/></filter><filter id="drop-shadow-6" filterUnits="userSpaceOnUse"><feOffset dx=".17" dy=".17"/><feGaussianBlur result="blur-6" stdDeviation="0"/><feFlood flood-color="#231815" flood-opacity=".3"/><feComposite in2="blur-6" operator="in"/><feComposite in="SourceGraphic"/></filter><filter id="drop-shadow-7" filterUnits="userSpaceOnUse"><feOffset dx=".17" dy=".17"/><feGaussianBlur result="blur-7" stdDeviation="0"/><feFlood flood-color="#231815" flood-opacity=".3"/><feComposite in2="blur-7" operator="in"/><feComposite in="SourceGraphic"/></filter><clipPath id="clippath"><path class="cls-1" d="m48.35,6.74s.32-2.15,3.99-2.26c0,0,4.74-1.72,9.7-.11,0,0,4.52.32,3.77,3.56l-.75,2.48-1.4,3.66-2.15,5.39-3.34.97-5.39-1.29-3.45-6.79s-1.94-2.26-.97-5.6Z"/></clipPath><clipPath id="clippath-1"><polygon class="cls-1" points="48.58 5.7 49.32 10.31 51.19 11.57 54.42 16.31 56.22 19 58.7 20.59 53.6 20.31 51.6 18.96 47.93 11.57 47.24 8.43 48.58 5.7"/></clipPath><filter id="drop-shadow-8" filterUnits="userSpaceOnUse"><feOffset dx=".17" dy=".17"/><feGaussianBlur result="blur-8" stdDeviation="0"/><feFlood flood-color="#231815" flood-opacity=".3"/><feComposite in2="blur-8" operator="in"/><feComposite in="SourceGraphic"/></filter><filter id="drop-shadow-9" filterUnits="userSpaceOnUse"><feOffset dx=".17" dy=".17"/><feGaussianBlur result="blur-9" stdDeviation="0"/><feFlood flood-color="#231815" flood-opacity=".3"/><feComposite in2="blur-9" operator="in"/><feComposite in="SourceGraphic"/></filter><filter id="drop-shadow-10" filterUnits="userSpaceOnUse"><feOffset dx=".17" dy=".17"/><feGaussianBlur result="blur-10" stdDeviation="0"/><feFlood flood-color="#231815" flood-opacity=".3"/><feComposite in2="blur-10" operator="in"/><feComposite in="SourceGraphic"/></filter><filter id="drop-shadow-11" filterUnits="userSpaceOnUse"><feOffset dx=".17" dy=".17"/><feGaussianBlur result="blur-11" stdDeviation="0"/><feFlood flood-color="#231815" flood-opacity=".3"/><feComposite in2="blur-11" operator="in"/><feComposite in="SourceGraphic"/></filter><filter id="drop-shadow-12" filterUnits="userSpaceOnUse"><feOffset dx=".17" dy=".17"/><feGaussianBlur result="blur-12" stdDeviation="0"/><feFlood flood-color="#231815" flood-opacity=".3"/><feComposite in2="blur-12" operator="in"/><feComposite in="SourceGraphic"/></filter><filter id="drop-shadow-13" filterUnits="userSpaceOnUse"><feOffset dx=".17" dy=".17"/><feGaussianBlur result="blur-13" stdDeviation="0"/><feFlood flood-color="#231815" flood-opacity=".3"/><feComposite in2="blur-13" operator="in"/><feComposite in="SourceGraphic"/></filter><filter id="drop-shadow-14" filterUnits="userSpaceOnUse"><feOffset dx=".17" dy=".17"/><feGaussianBlur result="blur-14" stdDeviation="0"/><feFlood flood-color="#231815" flood-opacity=".3"/><feComposite in2="blur-14" operator="in"/><feComposite in="SourceGraphic"/></filter><filter id="drop-shadow-15" filterUnits="userSpaceOnUse"><feOffset dx=".17" dy=".17"/><feGaussianBlur result="blur-15" stdDeviation="0"/><feFlood flood-color="#231815" flood-opacity=".3"/><feComposite in2="blur-15" operator="in"/><feComposite in="SourceGraphic"/></filter><clipPath id="clippath-2"><path class="cls-1" d="m48.35,6.74s.32-2.15,3.99-2.26c0,0,4.74-1.72,9.7-.11,0,0,4.52.32,3.77,3.56l-.75,2.48-1.4,3.66-2.15,5.39-3.34.97-5.39-1.29-3.45-6.79s-1.94-2.26-.97-5.6Z"/></clipPath><clipPath id="clippath-3"><polygon class="cls-1" points="48.58 5.7 49.32 10.31 51.19 11.57 54.42 16.31 56.22 19 58.7 20.59 53.6 20.31 51.6 18.96 47.93 11.57 47.24 8.43 48.58 5.7"/></clipPath><filter id="drop-shadow-16" filterUnits="userSpaceOnUse"><feOffset dx=".17" dy=".17"/><feGaussianBlur result="blur-16" stdDeviation="0"/><feFlood flood-color="#231815" flood-opacity=".3"/><feComposite in2="blur-16" operator="in"/><feComposite in="SourceGraphic"/></filter><filter id="drop-shadow-17" filterUnits="userSpaceOnUse"><feOffset dx=".17" dy=".17"/><feGaussianBlur result="blur-17" stdDeviation="0"/><feFlood flood-color="#231815" flood-opacity=".3"/><feComposite in2="blur-17" operator="in"/><feComposite in="SourceGraphic"/></filter><filter id="drop-shadow-18" filterUnits="userSpaceOnUse"><feOffset dx=".17" dy=".17"/><feGaussianBlur result="blur-18" stdDeviation="0"/><feFlood flood-color="#231815" flood-opacity=".3"/><feComposite in2="blur-18" operator="in"/><feComposite in="SourceGraphic"/></filter><filter id="drop-shadow-19" filterUnits="userSpaceOnUse"><feOffset dx=".17" dy=".17"/><feGaussianBlur result="blur-19" stdDeviation="0"/><feFlood flood-color="#231815" flood-opacity=".3"/><feComposite in2="blur-19" operator="in"/><feComposite in="SourceGraphic"/></filter><clipPath id="clippath-4"><path class="cls-1" d="m19.94,2.15l-4.94,4.43.63,5.87c1.51.16,3.02.38,4.51.68,2.81.55,4.6,1.11,6.59,3.47,1.75,2.08,4.45,2.7,6.75,3.59,3.97,1.54,8.29,1.96,12.44,2.2l8.84-12.38-.32-1.05c-.26-.17-.43-.25-.43-.25,0,0-19.91-7.91-34.07-6.55Z"/></clipPath><filter id="drop-shadow-20" filterUnits="userSpaceOnUse"><feOffset dx=".17" dy=".17"/><feGaussianBlur result="blur-20" stdDeviation="0"/><feFlood flood-color="#231815" flood-opacity=".3"/><feComposite in2="blur-20" operator="in"/><feComposite in="SourceGraphic"/></filter></defs><g class="cls-33"><g id="_レイヤー_2"><g id="_レイヤー_1-2"><path class="cls-18" d="m65.87,7.18c0-.11,0-.21-.02-.31-.01-.07-.03-.14-.05-.21-.02-.08-.04-.16-.06-.23-.03-.08-.07-.15-.1-.22-.03-.05-.05-.11-.08-.16-.05-.08-.11-.15-.16-.22-.03-.04-.06-.07-.09-.11-.07-.08-.15-.15-.22-.22-.02-.02-.05-.04-.07-.06-.09-.08-.19-.14-.29-.21-.01,0-.03-.02-.04-.03-.11-.07-.23-.14-.34-.2,0,0,0,0,0,0,0,0,0,0,0,0-1.07-.55-2.3-.64-2.31-.64h0c-.31-.1-.62-.19-.93-.27-.61-.15-1.22-.26-1.81-.33-1.47-.17-2.84-.11-3.97.04-.45.06-.86.13-1.23.2-.36.07-.68.15-.94.22s-.47.13-.6.17c-.14.04-.21.07-.21.07-.26,0-.5.03-.73.06-.07,0-.14.02-.21.03-.15.02-.3.05-.44.08-.07.02-.14.03-.2.05-.13.03-.26.07-.37.11-.05.02-.1.03-.15.05-.16.06-.31.13-.44.19,0,0-.01,0-.02.01-.13.07-.24.14-.35.21-.04.02-.07.05-.1.07-.07.05-.14.11-.2.16-.03.03-.06.05-.09.08-.06.06-.11.11-.16.17-.02.02-.04.04-.06.06-.06.08-.12.15-.17.23,0,0,0,0,0,0,0,0,0,0,0,0-.05.07-.09.14-.12.21,0,.02-.02.04-.03.05-.02.05-.04.09-.06.13,0,.02-.01.03-.02.05-.01.04-.03.07-.03.1,0,.01,0,.02,0,.03,0,.03-.02.06-.02.08-1.12-.36-2.37-.75-3.72-1.14,0,0-.02,0-.03,0-4.07-1.18-9.03-2.38-14.03-3.04h0c-.11-.02-.22-.03-.32-.04-.96-.12-1.91-.23-2.87-.31,0,0,0,0,0,0,0,0,0,0,0,0,0,0,0,0-.01,0-.18-.01-.36-.03-.54-.04,0,0,0,0,0,0,0,0,0,0,0,0-.3-.02-.59-.04-.89-.05-.05,0-.11,0-.16,0h0s0,0,0,0c0,0,0,0,0,0-.49-.03-.98-.04-1.46-.05-.03,0-.06,0-.1,0-.45,0-.91-.01-1.35,0-.07,0-.14,0-.22,0-.41,0-.82.02-1.22.04-.11,0-.23.01-.34.02-.36.02-.72.05-1.08.08-.16.01-.31.03-.47.05-.31.03-.62.07-.93.11-.2.03-.4.07-.6.1-.26.04-.51.08-.76.13-.27.05-.52.12-.78.18-.18.04-.37.08-.54.13-.44.12-.87.24-1.28.39,0,0-1.08.55-2.51,1.53-.2.14-.42.29-.63.45-1.09.79-2.3,1.79-3.37,2.97-.65.71-1.24,1.47-1.73,2.3-.11.18-.21.37-.31.56-.19.38-.37.76-.51,1.16-.14.4-.26.8-.34,1.21s-.13.84-.14,1.27c0,.22,0,.43.02.65.41,5.68-1.65,11.12-2.44,12.97-.05.11-.09.2-.12.28-.11.25-.18.38-.18.39-.16.32-.26.71-.31,1.14-.03.21-.04.44-.04.66,0,.25.01.51.04.77.04.43.12.85.24,1.23.06.2.14.39.22.57.08.18.18.33.28.47.81,1.09,2.06,1.46,3.49,1.41,0,0,.01,0,.02,0,.29-.01.58-.04.88-.08.6-.08,1.21-.23,1.83-.4,2.46-.71,4.94-2.02,6.28-2.64h0c-.38-.66-.68-1.44-.9-2.28-.22-.85-.38-1.76-.48-2.68-.15-1.39-.2-2.8-.2-4.06,0-.42,0-.82.01-1.2,0-.01,0-.02,0-.03.01-.59.04-1.18.09-1.75.03-.35.06-.7.1-1.04.13-1.13.3-2.18.49-3.1.28-1.42.59-2.52.76-3.09.06-.19.1-.33.12-.39.01-.03.02-.05.02-.05.65.06,1.3.15,1.95.24.56.08,1.12.17,1.68.27l-2.7,14.88s2.09,1.72,4.27,2.75c.87.41,1.75.71,2.52.75.19,0,.38,0,.55-.03.18-.03.34-.07.5-.14.62-.27,1.18-.54,1.66-.8,1.44-.77,2.21-1.41,2.21-1.41l-1.98-9.78.02-.5.11-2.18.03-.56c.22.22.43.45.65.71.66.78,1.45,1.35,2.3,1.81.85.46,1.77.81,2.67,1.13.3.11.6.21.9.32s.59.21.88.33c.27.11.55.19.83.29l.36,20.54s2.46,1.24,5.11,1.98c.34.1.69.18,1.04.26,1.73.38,3.42.47,4.46-.21,1.95-1.29,3.22-2.47,3.84-3.09.11-.11.2-.21.27-.28.1-.11.16-.18.16-.18h0s-1.38-3.11-1.38-3.11c.54.23,1.08.39,1.58.47.06,0,.12.01.17.02.18.02.36.03.53.02.06,0,.13,0,.19,0,.21-.02.42-.07.61-.15,2.49-1.08,3.87-2.21,3.87-2.21l-1.98-9.78.06-1.2.13-2.59v-.24c.19-.13.36-.28.53-.43.05-.05.11-.09.16-.14.2-.18.39-.38.58-.59l3.56.85.19-.06.84-.24,2.31-.67,2.15-5.39,1.4-3.66.75-2.48c.05-.2.07-.38.08-.56,0-.06,0-.12,0-.18Z"/><path class="cls-5" d="m64.34,5.01c-1.07-.55-2.31-.64-2.31-.64-4.96-1.62-9.7.11-9.7.11-2.3.07-3.28.94-3.69,1.58-.21.32-.27.58-.29.66-4.49-1.45-11.1-3.31-17.78-4.19h0s-.05,0-.08-.01c-1.04-.14-2.08-.25-3.12-.34-.18-.01-.37-.03-.55-.04-.3-.02-.6-.04-.9-.05-.05,0-.1,0-.16,0h0c-4.04-.21-7.92.07-11.15,1.18,0,0-10.03,5.08-9.52,12.09.51,6.99-2.73,13.62-2.74,13.64-.62,1.28-.38,3.74.43,4.84,2.6,3.52,9.81-.48,12.49-1.72-1.54-2.63-1.62-7.2-1.56-10.22.09-5,1.57-9.46,1.57-9.46,1.21.12,2.42.3,3.63.5l-2.7,14.88s5.35,4.41,7.84,3.33,3.87-2.21,3.87-2.21l-1.98-9.78.16-3.24c.22.22.43.45.65.71,1.75,2.08,4.45,2.7,6.75,3.59.27.11.55.19.83.29l.36,20.54s7.76,3.91,10.61,2.03c2.84-1.88,4.27-3.55,4.27-3.55l-1.38-3.11c1.14.47,2.26.71,3.08.36,2.49-1.08,3.87-2.21,3.87-2.21l-1.98-9.78.06-1.2.14-2.83c.45-.33.87-.72,1.26-1.16l3.56.85.19-.06,3.15-.91,2.15-5.39,1.4-3.66.75-2.48c.36-1.54-.48-2.42-1.46-2.91Zm-19.84,22.43l-.82-5.21c.58.05,1.16.09,1.74.12l-.92,5.09Z"/><g class="cls-17"><g class="cls-23"><path class="cls-4" d="m19.83,7.87l-3.62,19.92s5.35,4.41,7.84,3.33,3.87-2.21,3.87-2.21l-1.98-9.78.45-9.22-4.11-3.35-2.44,1.31Z"/><polygon class="cls-14" points="21.63 10 19.34 10.58 18.07 17.56 25.96 18.63 26.25 12.62 21.63 10"/><path class="cls-4" d="m47.03,13.49l-3.62,19.92s5.35,4.41,7.84,3.33,3.87-2.21,3.87-2.21l-1.98-9.78.45-9.22-4.11-3.35-2.44,1.31Z"/><polygon class="cls-14" points="44.73 26.17 53.2 23.55 53.58 15.53 53.51 15.48 46.53 16.26 44.73 26.17"/><path class="cls-10" d="m54.02,8.7S28.41-1.47,14.62,3.24c0,0-10.03,5.08-9.52,12.09.51,6.99-2.73,13.62-2.74,13.64-.62,1.28-.38,3.74.43,4.84,2.6,3.52,9.81-.48,12.49-1.72-1.54-2.63-1.62-7.2-1.56-10.22.09-5,1.57-9.46,1.57-9.46,1.63.16,3.26.4,4.87.72,2.81.55,4.6,1.11,6.59,3.47,1.75,2.08,4.45,2.7,6.75,3.59,4.04,1.57,8.44,1.98,12.66,2.21,3.45.19,6.96-.86,8.89-4.29,4.04-7.18-1.02-9.4-1.02-9.4Z"/><path class="cls-10" d="m34.25,16.63l.43,24.39s7.76,3.91,10.61,2.03c2.84-1.88,4.27-3.55,4.27-3.55l-4.9-11.06-1.73-10.98-5.96-2.95-2.72,2.14Z"/><path class="cls-4" d="m54.63,8.7s-2.38-.94-6.07-2.12c-.58,2.59-2.12,10.64-.14,15.81,2.88-.2,5.62-1.4,7.23-4.28,4.04-7.18-1.02-9.4-1.02-9.4Z"/><path class="cls-13" d="m56.58,10.57c-.77-1.35-1.95-1.87-1.95-1.87,0,0-2.38-.94-6.07-2.12-.42,1.86-1.32,6.53-1.07,10.93l7.95-2.3,1.15-4.64Z"/><path class="cls-15" d="m53.4,8.7s-1.62-.64-4.27-1.53c-1.48,2.99-.1,5.5-.1,5.5l1.99,7.35,1.25.59c.83-.63,1.57-1.45,2.15-2.49,4.04-7.18-1.02-9.4-1.02-9.4Z"/></g><path class="cls-11" d="m48.35,6.74s.32-2.15,3.99-2.26c0,0,4.74-1.72,9.7-.11,0,0,4.52.32,3.77,3.56l-.75,2.48-1.4,3.66-2.15,5.39-3.34.97-5.39-1.29-3.45-6.79s-1.94-2.26-.97-5.6Z"/><path class="cls-6" d="m55.68,9.25s-1.8.73-1.59,2.16c0,0,.29,1.63,1.63,1.59,0,0,1.84.41,2.16-1.31,0,0,.29-1.76-.78-2.2,0,0-.82-.61-1.43-.24Z"/><path class="cls-7" d="m63.19,9.45s-1.22.33-1.18,1.31c0,0,.04,1.92,1.14,2.29,0,0,.82.08,1.35-1.59,0,0,.24-1.31-.33-1.92,0,0-.57-.37-.98-.08Z"/><path class="cls-3" d="m54.95,10.8s.16-.2.61.45c0,0,.53.41.86-.08,0,0,.37-.37.65-.33,0,0-.37.41-.53.86,0,0-1.31.88-1.31-.04,0-.2-.29-.86-.29-.86Z"/><path class="cls-3" d="m62.62,10.51s.69-.08.82.69c0,0,.61.45.73-.41,0,0,.16,1.55-.61,1.14,0,0-.37.04-.61-.73,0,0,.12-.53-.33-.69Z"/><path class="cls-31" d="m57.64,16.67s1.67.33,2.65-.04c0,0,.98-.2,1.51-.9l-.49,1.47s-.29,1.67-1.31,1.55c0,0-.82.41-1.67-1.02l-.69-1.06Z"/><g class="cls-2"><polygon class="cls-4" points="48.58 5.7 49.32 10.31 51.19 11.57 54.42 16.31 56.22 19 58.7 20.59 53.6 20.31 51.6 18.96 47.93 11.57 47.24 8.43 48.58 5.7"/><path class="cls-4" d="m62.03,4.36c.1-.06,2.06,3.45,2.06,3.45l.98-.45-.9-2.9-2.15-.11Z"/><g class="cls-19"><polygon class="cls-14" points="46.79 11.25 49.81 10.43 51.6 11.25 48.42 13.7 46.79 11.25"/><polygon class="cls-14" points="50.99 18.92 56.58 19 58.83 20.27 57.93 21.33 53.81 21.37 50.99 18.92"/></g></g><polygon class="cls-24" points="57.24 5 58.05 5 61.32 6.02 61.89 5.53 61.56 5.12 57.93 4.59 57.24 5"/><polygon class="cls-25" points="55.93 4.06 57.73 3.94 61.4 4.67 62.03 4.36 58.09 3.78 57.11 3.82 55.93 4.06"/><g class="cls-34"><path class="cls-4" d="m19.83,7.87l-3.62,19.92s5.35,4.41,7.84,3.33,3.87-2.21,3.87-2.21l-1.98-9.78.45-9.22-4.11-3.35-2.44,1.31Z"/><polygon class="cls-14" points="21.63 10 19.34 10.58 18.07 17.56 25.96 18.63 26.25 12.62 21.63 10"/><path class="cls-4" d="m47.03,13.49l-3.62,19.92s5.35,4.41,7.84,3.33,3.87-2.21,3.87-2.21l-1.98-9.78.45-9.22-4.11-3.35-2.44,1.31Z"/><polygon class="cls-14" points="44.73 26.17 53.2 23.55 53.58 15.53 53.51 15.48 46.53 16.26 44.73 26.17"/><path class="cls-10" d="m54.02,8.7S28.41-1.47,14.62,3.24c0,0-10.03,5.08-9.52,12.09.51,6.99-2.73,13.62-2.74,13.64-.62,1.28-.38,3.74.43,4.84,2.6,3.52,9.81-.48,12.49-1.72-1.54-2.63-1.62-7.2-1.56-10.22.09-5,1.57-9.46,1.57-9.46,1.63.16,3.26.4,4.87.72,2.81.55,4.6,1.11,6.59,3.47,1.75,2.08,4.45,2.7,6.75,3.59,4.04,1.57,8.44,1.98,12.66,2.21,3.45.19,6.96-.86,8.89-4.29,4.04-7.18-1.02-9.4-1.02-9.4Z"/><path class="cls-10" d="m34.25,16.63l.43,24.39s7.76,3.91,10.61,2.03c2.84-1.88,4.27-3.55,4.27-3.55l-4.9-11.06-1.73-10.98-5.96-2.95-2.72,2.14Z"/><path class="cls-4" d="m54.63,8.7s-2.38-.94-6.07-2.12c-.58,2.59-2.12,10.64-.14,15.81,2.88-.2,5.62-1.4,7.23-4.28,4.04-7.18-1.02-9.4-1.02-9.4Z"/><path class="cls-13" d="m56.58,10.57c-.77-1.35-1.95-1.87-1.95-1.87,0,0-2.38-.94-6.07-2.12-.42,1.86-1.32,6.53-1.07,10.93l7.95-2.3,1.15-4.64Z"/><path class="cls-16" d="m53.4,8.7s-1.62-.64-4.27-1.53c-1.48,2.99-.1,5.5-.1,5.5l1.99,7.35,1.25.59c.83-.63,1.57-1.45,2.15-2.49,4.04-7.18-1.02-9.4-1.02-9.4Z"/></g><path class="cls-12" d="m48.35,6.74s.32-2.15,3.99-2.26c0,0,4.74-1.72,9.7-.11,0,0,4.52.32,3.77,3.56l-.75,2.48-1.4,3.66-2.15,5.39-3.34.97-5.39-1.29-3.45-6.79s-1.94-2.26-.97-5.6Z"/><path class="cls-8" d="m55.68,9.25s-1.8.73-1.59,2.16c0,0,.29,1.63,1.63,1.59,0,0,1.84.41,2.16-1.31,0,0,.29-1.76-.78-2.2,0,0-.82-.61-1.43-.24Z"/><path class="cls-9" d="m63.19,9.45s-1.22.33-1.18,1.31c0,0,.04,1.92,1.14,2.29,0,0,.82.08,1.35-1.59,0,0,.24-1.31-.33-1.92,0,0-.57-.37-.98-.08Z"/><path class="cls-3" d="m54.95,10.8s.16-.2.61.45c0,0,.53.41.86-.08,0,0,.37-.37.65-.33,0,0-.37.41-.53.86,0,0-1.31.88-1.31-.04,0-.2-.29-.86-.29-.86Z"/><path class="cls-3" d="m62.62,10.51s.69-.08.82.69c0,0,.61.45.73-.41,0,0,.16,1.55-.61,1.14,0,0-.37.04-.61-.73,0,0,.12-.53-.33-.69Z"/><path class="cls-32" d="m57.64,16.67s1.67.33,2.65-.04c0,0,.98-.2,1.51-.9l-.49,1.47s-.29,1.67-1.31,1.55c0,0-.82.41-1.67-1.02l-.69-1.06Z"/><g class="cls-22"><polygon class="cls-4" points="48.58 5.7 49.32 10.31 51.19 11.57 54.42 16.31 56.22 19 58.7 20.59 53.6 20.31 51.6 18.96 47.93 11.57 47.24 8.43 48.58 5.7"/><path class="cls-4" d="m62.03,4.36c.1-.06,2.06,3.45,2.06,3.45l.98-.45-.9-2.9-2.15-.11Z"/><g class="cls-21"><polygon class="cls-14" points="46.79 11.25 49.81 10.43 51.6 11.25 48.42 13.7 46.79 11.25"/><polygon class="cls-14" points="50.99 18.92 56.58 19 58.83 20.27 57.93 21.33 53.81 21.37 50.99 18.92"/></g></g><polygon class="cls-26" points="57.24 5 58.05 5 61.32 6.02 61.89 5.53 61.56 5.12 57.93 4.59 57.24 5"/><polygon class="cls-30" points="55.93 4.06 57.73 3.94 61.4 4.67 62.03 4.36 58.09 3.78 57.11 3.82 55.93 4.06"/><polygon class="cls-29" points="35.15 13.8 36.44 12.16 44.71 8.05 44.12 5.73 42.37 5.41 35.01 11.43 35.15 13.8"/><polygon class="cls-28" points="26.81 11.53 28.11 9.89 36.37 5.78 35.79 3.46 34.03 3.14 26.67 9.16 26.81 11.53"/><g class="cls-20"><polygon class="cls-27" points="21.05 8.4 22.34 6.76 30.61 2.66 30.03 .34 28.27 .02 20.91 6.03 21.05 8.4"/></g></g></g></g></g></svg>